<?xml version="1.0" encoding="UTF-8"?>
<svg id="Ebene_1" data-name="Ebene 1" xmlns="http://www.w3.org/2000/svg" viewBox="0 0 1967.13 838.33">
  <defs>
    <style>
      .cls-1, .cls-2 {
        stroke-width: 0px;
      }

      .cls-2 {
        fill: #e54545;
      }
    </style>
  </defs>
  <g>
    <path class="cls-2" d="M.41,46.71h3.08c.87,7.37,4.42,13.97,10.67,19.81,6.24,5.84,13.05,8.76,20.42,8.76,6.99,0,12.09-1.3,15.28-3.91,3.2-2.61,4.8-5.74,4.8-9.39,0-3.2-1.25-5.71-3.75-7.53-2.5-1.83-6.17-3.46-11-4.89l-19.49-5.97C7.25,39.6.67,32.95.67,23.62c0-6.26,2.44-10.89,7.31-13.89,4.88-3,10.97-4.5,18.29-4.5,3.41,0,6.74.6,9.97,1.81,3.24,1.21,6.14,2.56,8.7,4.06,2.04,1.17,3.67,1.76,4.86,1.76,1.45,0,2.3-.78,2.56-2.35l.51-3.52h3.08l1.28,25.44h-3.08c-2.05-7.04-5.8-12.82-11.26-17.32-5.46-4.5-11.34-6.75-17.65-6.75-4.77,0-8.69,1.19-11.76,3.57s-4.6,5.69-4.6,9.93c0,2.93.94,5.22,2.82,6.85,1.88,1.63,4.66,3.03,8.34,4.21l24.78,7.48c6.02,1.77,10.53,4.29,13.54,7.56,3.01,3.27,4.51,6.7,4.51,10.3,0,5.41-2.39,10.13-7.17,14.14-4.78,4.01-11.82,6.02-21.12,6.02-3.15,0-6.46-.55-9.91-1.66-3.45-1.11-5.65-1.92-6.58-2.45-.94-.52-2.47-1.35-4.61-2.5-2.13-1.14-3.41-1.81-3.85-2.01s-.83-.29-1.18-.29c-.77,0-1.52.34-2.24,1.03-.72.68-1.18,1.75-1.37,3.18l-.58,3.91H1.31l-.9-30.91Z"/>
    <path class="cls-1" d="M76.59,76.64v-3.13h9.23c2.31,0,3.46-.88,3.46-2.64V12.76c0-1.76-1.15-2.64-3.46-2.64h-9.23v-3.13h71.56l.51,22.11h-3.21l-.13-1.96c-.17-1.37-.69-3.16-1.54-5.38-.86-2.22-2.05-4.21-3.59-5.97-3.25-3.78-8.25-5.67-15.01-5.67h-20.65c-2.31,0-3.46.88-3.46,2.64v26.71h11.29c2.31,0,4.23-.41,5.77-1.22,1.54-.81,2.61-1.97,3.21-3.47.6-1.5,1-2.9,1.22-4.21.21-1.3.32-2.84.32-4.6h3.33v30.62h-3.33c0-1.83-.09-3.38-.26-4.65-.17-1.27-.58-2.67-1.22-4.21-.64-1.53-1.73-2.71-3.27-3.52-1.54-.81-3.46-1.22-5.77-1.22h-11.29v27.88c0,1.76,1.15,2.64,3.46,2.64h20.52c2.31,0,4.81-.41,7.5-1.22,2.69-.81,4.89-2.07,6.6-3.77,1.71-1.82,3.18-4.24,4.42-7.24,1.24-3,2.03-5.58,2.37-7.73l.51-3.13h3.21l-1.54,26.22h-71.56Z"/>
    <path class="cls-1" d="M168.42,46.71h3.08c.87,7.37,4.42,13.97,10.67,19.81,6.24,5.84,13.05,8.76,20.42,8.76,6.99,0,12.09-1.3,15.28-3.91,3.2-2.61,4.8-5.74,4.8-9.39,0-3.2-1.25-5.71-3.75-7.53-2.5-1.83-6.17-3.46-11-4.89l-19.49-5.97c-13.17-3.98-19.75-10.63-19.75-19.96,0-6.26,2.44-10.89,7.31-13.89,4.88-3,10.97-4.5,18.29-4.5,3.41,0,6.74.6,9.97,1.81,3.24,1.21,6.14,2.56,8.7,4.06,2.04,1.17,3.67,1.76,4.86,1.76,1.45,0,2.3-.78,2.56-2.35l.51-3.52h3.08l1.28,25.44h-3.08c-2.05-7.04-5.8-12.82-11.26-17.32-5.46-4.5-11.34-6.75-17.65-6.75-4.77,0-8.69,1.19-11.76,3.57-3.07,2.38-4.6,5.69-4.6,9.93,0,2.93.94,5.22,2.82,6.85,1.88,1.63,4.66,3.03,8.34,4.21l24.78,7.48c6.02,1.77,10.53,4.29,13.54,7.56,3.01,3.27,4.51,6.7,4.51,10.3,0,5.41-2.39,10.13-7.17,14.14-4.78,4.01-11.82,6.02-21.12,6.02-3.15,0-6.46-.55-9.91-1.66-3.45-1.11-5.65-1.92-6.58-2.45-.94-.52-2.47-1.35-4.61-2.5-2.13-1.14-3.41-1.81-3.85-2.01s-.83-.29-1.18-.29c-.77,0-1.52.34-2.24,1.03-.72.68-1.18,1.75-1.37,3.18l-.58,3.91h-2.95l-.9-30.91Z"/>
    <path class="cls-1" d="M238.65,76.64v-3.13h4.75c4.96,0,8.55-2.38,10.77-7.14l27.83-59.39h3.21l27.83,62.22c1.54,2.87,4.1,4.3,7.7,4.3h7.18v3.13h-39.78v-3.13h8.46c1.28,0,2.35-.24,3.21-.73.85-.49,1.28-1.06,1.28-1.71,0-.85-.17-1.56-.51-2.15l-5.64-12.82h-28.76l-3.07,6.59c-1.32,2.55-1.99,4.47-1.99,5.74,0,1.34.52,2.52,1.57,3.54,1.05,1.02,2.77,1.53,5.16,1.53h6.8v3.13h-36ZM267.88,52.58h25.34l-12.89-28.62-12.45,28.62Z"/>
  </g>
  <g>
    <path class="cls-1" d="M0,124.75h3.08c.87,7.37,4.42,13.97,10.67,19.81,6.24,5.84,13.05,8.76,20.42,8.76,6.99,0,12.09-1.3,15.28-3.91,3.2-2.61,4.8-5.74,4.8-9.39,0-3.2-1.25-5.71-3.75-7.53-2.5-1.83-6.17-3.46-11-4.89l-19.49-5.97C6.84,117.64.26,110.99.26,101.66c0-6.26,2.44-10.89,7.31-13.89,4.88-3,10.97-4.5,18.29-4.5,3.41,0,6.74.6,9.97,1.81,3.24,1.21,6.14,2.56,8.7,4.06,2.04,1.17,3.67,1.76,4.86,1.76,1.45,0,2.3-.78,2.56-2.35l.51-3.52h3.08l1.28,25.44h-3.08c-2.05-7.04-5.8-12.82-11.26-17.32-5.46-4.5-11.34-6.75-17.65-6.75-4.77,0-8.69,1.19-11.76,3.57-3.07,2.38-4.6,5.69-4.6,9.93,0,2.93.94,5.22,2.82,6.85,1.88,1.63,4.66,3.03,8.34,4.21l24.78,7.48c6.02,1.77,10.53,4.29,13.54,7.56,3.01,3.27,4.51,6.7,4.51,10.3,0,5.41-2.39,10.13-7.17,14.14-4.78,4.01-11.82,6.02-21.12,6.02-3.15,0-6.46-.55-9.91-1.66-3.45-1.11-5.65-1.92-6.58-2.45-.94-.52-2.47-1.35-4.61-2.5-2.13-1.14-3.41-1.81-3.85-2.01s-.83-.29-1.18-.29c-.77,0-1.52.34-2.24,1.03-.72.68-1.18,1.75-1.37,3.18l-.58,3.91H.9l-.9-30.91Z"/>
    <path class="cls-2" d="M76.18,154.69v-3.13h9.23c2.31,0,3.46-.88,3.46-2.64v-58.11c0-1.76-1.15-2.64-3.46-2.64h-9.23v-3.13h71.56l.51,22.11h-3.21l-.13-1.96c-.17-1.37-.69-3.16-1.54-5.38-.86-2.22-2.05-4.21-3.59-5.97-3.25-3.78-8.25-5.67-15.01-5.67h-20.65c-2.31,0-3.46.88-3.46,2.64v26.71h11.29c2.31,0,4.23-.41,5.77-1.22,1.54-.81,2.61-1.97,3.21-3.47.6-1.5,1-2.9,1.22-4.21.21-1.3.32-2.84.32-4.6h3.33v30.62h-3.33c0-1.83-.09-3.38-.26-4.65-.17-1.27-.58-2.67-1.22-4.21-.64-1.53-1.73-2.71-3.27-3.52-1.54-.81-3.46-1.22-5.77-1.22h-11.29v27.88c0,1.76,1.15,2.64,3.46,2.64h20.52c2.31,0,4.81-.41,7.5-1.22,2.69-.81,4.89-2.07,6.6-3.77,1.71-1.82,3.18-4.24,4.42-7.24,1.24-3,2.03-5.58,2.37-7.73l.51-3.13h3.21l-1.54,26.22h-71.56Z"/>
    <path class="cls-1" d="M168.01,124.75h3.08c.87,7.37,4.42,13.97,10.67,19.81,6.24,5.84,13.05,8.76,20.42,8.76,6.99,0,12.09-1.3,15.28-3.91,3.2-2.61,4.8-5.74,4.8-9.39,0-3.2-1.25-5.71-3.75-7.53-2.5-1.83-6.17-3.46-11-4.89l-19.49-5.97c-13.17-3.98-19.75-10.63-19.75-19.96,0-6.26,2.44-10.89,7.31-13.89,4.88-3,10.97-4.5,18.29-4.5,3.41,0,6.74.6,9.97,1.81,3.24,1.21,6.14,2.56,8.7,4.06,2.04,1.17,3.67,1.76,4.86,1.76,1.45,0,2.3-.78,2.56-2.35l.51-3.52h3.08l1.28,25.44h-3.08c-2.05-7.04-5.8-12.82-11.26-17.32-5.46-4.5-11.34-6.75-17.65-6.75-4.77,0-8.69,1.19-11.76,3.57-3.07,2.38-4.6,5.69-4.6,9.93,0,2.93.94,5.22,2.82,6.85,1.88,1.63,4.66,3.03,8.34,4.21l24.78,7.48c6.02,1.77,10.53,4.29,13.54,7.56,3.01,3.27,4.51,6.7,4.51,10.3,0,5.41-2.39,10.13-7.17,14.14-4.78,4.01-11.82,6.02-21.12,6.02-3.15,0-6.46-.55-9.91-1.66-3.45-1.11-5.65-1.92-6.58-2.45-.94-.52-2.47-1.35-4.61-2.5-2.13-1.14-3.41-1.81-3.85-2.01s-.83-.29-1.18-.29c-.77,0-1.52.34-2.24,1.03-.72.68-1.18,1.75-1.37,3.18l-.58,3.91h-2.95l-.9-30.91Z"/>
    <path class="cls-1" d="M239.06,154.69v-3.13h4.75c4.96,0,8.55-2.38,10.77-7.14l27.83-59.39h3.21l27.83,62.22c1.54,2.87,4.1,4.3,7.7,4.3h7.18v3.13h-39.78v-3.13h8.46c1.28,0,2.35-.24,3.21-.73.85-.49,1.28-1.06,1.28-1.71,0-.85-.17-1.56-.51-2.15l-5.64-12.82h-28.76l-3.07,6.59c-1.32,2.55-1.99,4.47-1.99,5.74,0,1.34.52,2.52,1.57,3.54,1.05,1.02,2.77,1.53,5.16,1.53h6.8v3.13h-36ZM268.29,130.62h25.34l-12.89-28.62-12.45,28.62Z"/>
  </g>
  <g>
    <path class="cls-1" d="M0,202.12h3.08c.87,7.37,4.42,13.97,10.67,19.81,6.24,5.84,13.05,8.76,20.42,8.76,6.99,0,12.09-1.3,15.28-3.91,3.2-2.61,4.8-5.74,4.8-9.39,0-3.2-1.25-5.71-3.75-7.53-2.5-1.83-6.17-3.46-11-4.89l-19.49-5.97c-13.17-3.98-19.75-10.63-19.75-19.96,0-6.26,2.44-10.89,7.31-13.89,4.88-3,10.97-4.5,18.29-4.5,3.41,0,6.74.6,9.97,1.81,3.24,1.21,6.14,2.56,8.7,4.06,2.04,1.17,3.67,1.76,4.86,1.76,1.45,0,2.3-.78,2.56-2.35l.51-3.52h3.08l1.28,25.44h-3.08c-2.05-7.04-5.8-12.82-11.26-17.32-5.46-4.5-11.34-6.75-17.65-6.75-4.77,0-8.69,1.19-11.76,3.57-3.07,2.38-4.6,5.69-4.6,9.93,0,2.93.94,5.22,2.82,6.85,1.88,1.63,4.66,3.03,8.34,4.21l24.78,7.48c6.02,1.77,10.53,4.29,13.54,7.56,3.01,3.27,4.51,6.7,4.51,10.3,0,5.41-2.39,10.13-7.17,14.14-4.78,4.01-11.82,6.02-21.12,6.02-3.15,0-6.46-.55-9.91-1.66-3.45-1.11-5.65-1.92-6.58-2.45-.94-.52-2.47-1.35-4.61-2.5-2.13-1.14-3.41-1.81-3.85-2.01s-.83-.29-1.18-.29c-.77,0-1.52.34-2.24,1.03-.72.68-1.18,1.75-1.37,3.18l-.58,3.91H.9l-.9-30.91Z"/>
    <path class="cls-1" d="M76.18,232.06v-3.13h9.23c2.31,0,3.46-.88,3.46-2.64v-58.11c0-1.76-1.15-2.64-3.46-2.64h-9.23v-3.13h71.56l.51,22.11h-3.21l-.13-1.96c-.17-1.37-.69-3.16-1.54-5.38-.86-2.22-2.05-4.21-3.59-5.97-3.25-3.78-8.25-5.67-15.01-5.67h-20.65c-2.31,0-3.46.88-3.46,2.64v26.71h11.29c2.31,0,4.23-.41,5.77-1.22,1.54-.81,2.61-1.97,3.21-3.47.6-1.5,1-2.9,1.22-4.21.21-1.3.32-2.84.32-4.6h3.33v30.62h-3.33c0-1.83-.09-3.38-.26-4.65-.17-1.27-.58-2.67-1.22-4.21-.64-1.53-1.73-2.71-3.27-3.52-1.54-.81-3.46-1.22-5.77-1.22h-11.29v27.88c0,1.76,1.15,2.64,3.46,2.64h20.52c2.31,0,4.81-.41,7.5-1.22,2.69-.81,4.89-2.07,6.6-3.77,1.71-1.82,3.18-4.24,4.42-7.24,1.24-3,2.03-5.58,2.37-7.73l.51-3.13h3.21l-1.54,26.22h-71.56Z"/>
    <path class="cls-2" d="M168.01,202.12h3.08c.87,7.37,4.42,13.97,10.67,19.81,6.24,5.84,13.05,8.76,20.42,8.76,6.99,0,12.09-1.3,15.28-3.91,3.2-2.61,4.8-5.74,4.8-9.39,0-3.2-1.25-5.71-3.75-7.53-2.5-1.83-6.17-3.46-11-4.89l-19.49-5.97c-13.17-3.98-19.75-10.63-19.75-19.96,0-6.26,2.44-10.89,7.31-13.89,4.88-3,10.97-4.5,18.29-4.5,3.41,0,6.74.6,9.97,1.81,3.24,1.21,6.14,2.56,8.7,4.06,2.04,1.17,3.67,1.76,4.86,1.76,1.45,0,2.3-.78,2.56-2.35l.51-3.52h3.08l1.28,25.44h-3.08c-2.05-7.04-5.8-12.82-11.26-17.32-5.46-4.5-11.34-6.75-17.65-6.75-4.77,0-8.69,1.19-11.76,3.57-3.07,2.38-4.6,5.69-4.6,9.93,0,2.93.94,5.22,2.82,6.85,1.88,1.63,4.66,3.03,8.34,4.21l24.78,7.48c6.02,1.77,10.53,4.29,13.54,7.56,3.01,3.27,4.51,6.7,4.51,10.3,0,5.41-2.39,10.13-7.17,14.14-4.78,4.01-11.82,6.02-21.12,6.02-3.15,0-6.46-.55-9.91-1.66-3.45-1.11-5.65-1.92-6.58-2.45-.94-.52-2.47-1.35-4.61-2.5-2.13-1.14-3.41-1.81-3.85-2.01s-.83-.29-1.18-.29c-.77,0-1.52.34-2.24,1.03-.72.68-1.18,1.75-1.37,3.18l-.58,3.91h-2.95l-.9-30.91Z"/>
    <path class="cls-1" d="M239.06,232.06v-3.13h4.75c4.96,0,8.55-2.38,10.77-7.14l27.83-59.39h3.21l27.83,62.22c1.54,2.87,4.1,4.3,7.7,4.3h7.18v3.13h-39.78v-3.13h8.46c1.28,0,2.35-.24,3.21-.73.85-.49,1.28-1.06,1.28-1.71,0-.85-.17-1.56-.51-2.15l-5.64-12.82h-28.76l-3.07,6.59c-1.32,2.55-1.99,4.47-1.99,5.74,0,1.34.52,2.52,1.57,3.54,1.05,1.02,2.77,1.53,5.16,1.53h6.8v3.13h-36ZM268.29,207.99h25.34l-12.89-28.62-12.45,28.62Z"/>
  </g>
  <g>
    <path class="cls-1" d="M0,280.14h3.08c.87,7.37,4.42,13.97,10.67,19.81,6.24,5.84,13.05,8.76,20.42,8.76,6.99,0,12.09-1.3,15.28-3.91s4.8-5.74,4.8-9.39c0-3.2-1.25-5.71-3.75-7.53-2.5-1.83-6.17-3.46-11-4.89l-19.49-5.97c-13.17-3.98-19.75-10.63-19.75-19.96,0-6.26,2.44-10.89,7.31-13.89,4.88-3,10.97-4.5,18.29-4.5,3.41,0,6.74.6,9.97,1.81,3.24,1.21,6.14,2.56,8.7,4.06,2.04,1.17,3.67,1.76,4.86,1.76,1.45,0,2.3-.78,2.56-2.35l.51-3.52h3.08l1.28,25.44h-3.08c-2.05-7.04-5.8-12.82-11.26-17.32-5.46-4.5-11.34-6.75-17.65-6.75-4.77,0-8.69,1.19-11.76,3.57-3.07,2.38-4.6,5.69-4.6,9.93,0,2.93.94,5.22,2.82,6.85,1.88,1.63,4.66,3.03,8.34,4.21l24.78,7.48c6.02,1.77,10.53,4.29,13.54,7.56,3.01,3.27,4.51,6.7,4.51,10.3,0,5.41-2.39,10.13-7.17,14.14-4.78,4.01-11.82,6.02-21.12,6.02-3.15,0-6.46-.55-9.91-1.66-3.45-1.11-5.65-1.92-6.58-2.45-.94-.52-2.47-1.35-4.61-2.5-2.13-1.14-3.41-1.81-3.85-2.01s-.83-.29-1.18-.29c-.77,0-1.52.34-2.24,1.03-.72.68-1.18,1.75-1.37,3.18l-.58,3.91H.9l-.9-30.91Z"/>
    <path class="cls-1" d="M76.18,310.08v-3.13h9.23c2.31,0,3.46-.88,3.46-2.64v-58.11c0-1.76-1.15-2.64-3.46-2.64h-9.23v-3.13h71.56l.51,22.11h-3.21l-.13-1.96c-.17-1.37-.69-3.16-1.54-5.38-.86-2.22-2.05-4.21-3.59-5.97-3.25-3.78-8.25-5.67-15.01-5.67h-20.65c-2.31,0-3.46.88-3.46,2.64v26.71h11.29c2.31,0,4.23-.41,5.77-1.22,1.54-.81,2.61-1.97,3.21-3.47.6-1.5,1-2.9,1.22-4.21.21-1.3.32-2.84.32-4.6h3.33v30.62h-3.33c0-1.83-.09-3.38-.26-4.65-.17-1.27-.58-2.67-1.22-4.21-.64-1.53-1.73-2.71-3.27-3.52-1.54-.81-3.46-1.22-5.77-1.22h-11.29v27.88c0,1.76,1.15,2.64,3.46,2.64h20.52c2.31,0,4.81-.41,7.5-1.22,2.69-.81,4.89-2.07,6.6-3.77,1.71-1.82,3.18-4.24,4.42-7.24,1.24-3,2.03-5.58,2.37-7.73l.51-3.13h3.21l-1.54,26.22h-71.56Z"/>
    <path class="cls-1" d="M168.01,280.14h3.08c.87,7.37,4.42,13.97,10.67,19.81,6.24,5.84,13.05,8.76,20.42,8.76,6.99,0,12.09-1.3,15.28-3.91,3.2-2.61,4.8-5.74,4.8-9.39,0-3.2-1.25-5.71-3.75-7.53-2.5-1.83-6.17-3.46-11-4.89l-19.49-5.97c-13.17-3.98-19.75-10.63-19.75-19.96,0-6.26,2.44-10.89,7.31-13.89,4.88-3,10.97-4.5,18.29-4.5,3.41,0,6.74.6,9.97,1.81,3.24,1.21,6.14,2.56,8.7,4.06,2.04,1.17,3.67,1.76,4.86,1.76,1.45,0,2.3-.78,2.56-2.35l.51-3.52h3.08l1.28,25.44h-3.08c-2.05-7.04-5.8-12.82-11.26-17.32-5.46-4.5-11.34-6.75-17.65-6.75-4.77,0-8.69,1.19-11.76,3.57-3.07,2.38-4.6,5.69-4.6,9.93,0,2.93.94,5.22,2.82,6.85,1.88,1.63,4.66,3.03,8.34,4.21l24.78,7.48c6.02,1.77,10.53,4.29,13.54,7.56,3.01,3.27,4.51,6.7,4.51,10.3,0,5.41-2.39,10.13-7.17,14.14-4.78,4.01-11.82,6.02-21.12,6.02-3.15,0-6.46-.55-9.91-1.66-3.45-1.11-5.65-1.92-6.58-2.45-.94-.52-2.47-1.35-4.61-2.5-2.13-1.14-3.41-1.81-3.85-2.01s-.83-.29-1.18-.29c-.77,0-1.52.34-2.24,1.03-.72.68-1.18,1.75-1.37,3.18l-.58,3.91h-2.95l-.9-30.91Z"/>
    <path class="cls-2" d="M239.06,310.08v-3.13h4.75c4.96,0,8.55-2.38,10.77-7.14l27.83-59.39h3.21l27.83,62.22c1.54,2.87,4.1,4.3,7.7,4.3h7.18v3.13h-39.78v-3.13h8.46c1.28,0,2.35-.24,3.21-.73.85-.49,1.28-1.06,1.28-1.71,0-.85-.17-1.56-.51-2.15l-5.64-12.82h-28.76l-3.07,6.59c-1.32,2.55-1.99,4.47-1.99,5.74,0,1.34.52,2.52,1.57,3.54,1.05,1.02,2.77,1.53,5.16,1.53h6.8v3.13h-36ZM268.29,286.01h25.34l-12.89-28.62-12.45,28.62Z"/>
  </g>
  <g>
    <path class="cls-1" d="M397.87,182.12h13.51c3.8,32.36,19.42,61.36,46.83,86.98,27.41,25.63,57.3,38.44,89.67,38.44,30.7,0,53.06-5.72,67.1-17.18,14.04-11.45,21.06-25.2,21.06-41.24,0-14.03-5.5-25.05-16.48-33.07-10.99-8.01-27.08-15.17-48.27-21.48l-85.59-26.2c-57.81-17.46-86.72-46.67-86.72-87.62,0-27.49,10.7-47.82,32.11-60.99C452.52,6.59,479.28,0,511.39,0c14.98,0,29.57,2.65,43.79,7.95,14.22,5.3,26.95,11.24,38.18,17.82,8.98,5.15,16.09,7.73,21.34,7.73,6.35,0,10.1-3.44,11.23-10.31l2.24-15.47h13.51l5.63,111.68h-13.51c-8.99-30.93-25.46-56.27-49.42-76.03-23.96-19.76-49.79-29.64-77.48-29.64-20.96,0-38.17,5.23-51.65,15.68-13.48,10.46-20.21,24.99-20.21,43.6,0,12.88,4.13,22.91,12.38,30.07,8.25,7.16,20.45,13.31,36.6,18.47l108.79,32.84c26.43,7.76,46.24,18.82,59.46,33.17,13.21,14.36,19.82,29.43,19.82,45.22,0,23.77-10.5,44.46-31.48,62.07-20.99,17.61-51.9,26.41-92.72,26.41-13.85,0-28.36-2.43-43.51-7.3-15.16-4.87-24.79-8.44-28.91-10.74-4.12-2.29-10.86-5.94-20.22-10.96-9.36-5-14.99-7.95-16.91-8.8-1.92-.86-3.63-1.29-5.16-1.29-3.39,0-6.67,1.5-9.84,4.51-3.18,3.01-5.18,7.66-6.03,13.96l-2.55,17.18h-12.95l-3.94-135.73Z"/>
    <path class="cls-1" d="M732.34,313.56v-13.75h40.54c10.13,0,15.2-3.86,15.2-11.6V33.07c0-7.73-5.07-11.6-15.2-11.6h-40.54V7.73h314.2l2.25,97.07h-14.08l-.56-8.59c-.76-6.02-3.01-13.89-6.76-23.63-3.76-9.73-9.01-18.47-15.77-26.2-14.27-16.61-36.23-24.91-65.88-24.91h-90.66c-10.13,0-15.2,3.86-15.2,11.6v117.26h49.55c10.14,0,18.58-1.79,25.34-5.37,6.76-3.58,11.45-8.66,14.08-15.25,2.62-6.59,4.41-12.74,5.35-18.47.93-5.72,1.41-12.46,1.41-20.19h14.64v134.45h-14.64c0-8.01-.38-14.82-1.13-20.41-.76-5.58-2.54-11.74-5.35-18.47-2.81-6.72-7.6-11.88-14.36-15.46-6.76-3.58-15.2-5.37-25.34-5.37h-49.55v122.41c0,7.73,5.07,11.6,15.2,11.6h90.09c10.14,0,21.12-1.78,32.94-5.37,11.83-3.57,21.48-9.09,29-16.54,7.5-8.01,13.98-18.61,19.43-31.79,5.44-13.17,8.91-24.48,10.42-33.93l2.25-13.74h14.08l-6.76,115.12h-314.2Z"/>
    <path class="cls-1" d="M1135.49,182.12h13.51c3.8,32.36,19.42,61.36,46.83,86.98,27.41,25.63,57.3,38.44,89.67,38.44,30.7,0,53.06-5.72,67.1-17.18,14.04-11.45,21.06-25.2,21.06-41.24,0-14.03-5.5-25.05-16.48-33.07-10.99-8.01-27.08-15.17-48.27-21.48l-85.59-26.2c-57.81-17.46-86.72-46.67-86.72-87.62,0-27.49,10.7-47.82,32.11-60.99,21.41-13.17,48.17-19.75,80.28-19.75,14.98,0,29.57,2.65,43.79,7.95,14.22,5.3,26.95,11.24,38.18,17.82,8.98,5.15,16.09,7.73,21.34,7.73,6.35,0,10.1-3.44,11.23-10.31l2.24-15.47h13.51l5.63,111.68h-13.51c-8.99-30.93-25.46-56.27-49.42-76.03-23.96-19.76-49.79-29.64-77.48-29.64-20.96,0-38.17,5.23-51.65,15.68-13.48,10.46-20.21,24.99-20.21,43.6,0,12.88,4.13,22.91,12.38,30.07,8.25,7.16,20.45,13.31,36.6,18.47l108.79,32.84c26.43,7.76,46.24,18.82,59.46,33.17,13.21,14.36,19.82,29.43,19.82,45.22,0,23.77-10.5,44.46-31.48,62.07-20.99,17.61-51.9,26.41-92.72,26.41-13.85,0-28.36-2.43-43.51-7.3-15.16-4.87-24.79-8.44-28.91-10.74-4.12-2.29-10.86-5.94-20.22-10.96-9.36-5-14.99-7.95-16.91-8.8-1.92-.86-3.63-1.29-5.16-1.29-3.39,0-6.67,1.5-9.84,4.51-3.18,3.01-5.18,7.66-6.03,13.96l-2.55,17.18h-12.95l-3.94-135.73Z"/>
    <path class="cls-1" d="M1443.85,313.56v-13.75h20.83c21.77,0,37.53-10.45,47.3-31.35L1634.16,7.73h14.08l122.2,273.18c6.76,12.6,18.02,18.9,33.79,18.9h31.53v13.75h-174.64v-13.75h37.16c5.63,0,10.32-1.07,14.08-3.21,3.75-2.15,5.63-4.65,5.63-7.51,0-3.72-.76-6.86-2.25-9.44l-24.76-56.29h-126.27l-13.47,28.95c-5.82,11.21-8.72,19.62-8.72,25.22,0,5.89,2.3,11.07,6.89,15.56,4.59,4.48,12.15,6.72,22.66,6.72h29.84v13.75h-158.06ZM1572.16,207.89h111.26l-56.59-125.65-54.67,125.65Z"/>
  </g>
  <text/>
</svg>