<?xml version="1.0" encoding="UTF-8"?>
<svg id="Ebene_1" data-name="Ebene 1" xmlns="http://www.w3.org/2000/svg" viewBox="0 0 1878.71 822.86">
  <defs>
    <style>
      .cls-1, .cls-2 {
        stroke-width: 0px;
      }

      .cls-2 {
        fill: #e54545;
      }
    </style>
  </defs>
  <g>
    <path class="cls-2" d="M.37,42.22h2.78c.78,6.66,4,12.63,9.64,17.91,5.64,5.28,11.8,7.92,18.46,7.92,6.32,0,10.92-1.18,13.82-3.54,2.89-2.36,4.34-5.19,4.34-8.49,0-2.89-1.13-5.16-3.39-6.81-2.26-1.65-5.58-3.12-9.94-4.42l-17.62-5.4C6.55,35.8.6,29.78.6,21.35c0-5.66,2.2-9.85,6.61-12.56,4.41-2.71,9.92-4.07,16.53-4.07,3.08,0,6.09.55,9.02,1.64,2.93,1.09,5.55,2.31,7.86,3.67,1.85,1.06,3.31,1.59,4.39,1.59,1.31,0,2.08-.71,2.31-2.12l.46-3.18h2.78l1.16,22.99h-2.78c-1.85-6.37-5.24-11.59-10.18-15.65-4.93-4.07-10.25-6.1-15.95-6.1-4.31,0-7.86,1.08-10.63,3.23s-4.16,5.14-4.16,8.98c0,2.65.85,4.72,2.55,6.19,1.7,1.47,4.21,2.74,7.54,3.8l22.4,6.76c5.44,1.6,9.52,3.87,12.24,6.83,2.72,2.96,4.08,6.06,4.08,9.31,0,4.89-2.16,9.15-6.48,12.78-4.32,3.63-10.69,5.44-19.09,5.44-2.85,0-5.84-.5-8.96-1.5-3.12-1-5.1-1.74-5.95-2.21-.85-.47-2.24-1.22-4.16-2.26-1.93-1.03-3.09-1.64-3.48-1.81s-.75-.27-1.06-.27c-.7,0-1.37.31-2.03.93-.65.62-1.07,1.58-1.24,2.87l-.52,3.54H1.18l-.81-27.95Z"/>
    <path class="cls-1" d="M69.23,69.28v-2.83h8.35c2.09,0,3.13-.8,3.13-2.39V11.53c0-1.59-1.04-2.39-3.13-2.39h-8.35v-2.83h64.69l.46,19.99h-2.9l-.12-1.77c-.16-1.24-.62-2.86-1.39-4.86-.77-2-1.85-3.8-3.25-5.39-2.94-3.42-7.46-5.13-13.56-5.13h-18.67c-2.09,0-3.13.8-3.13,2.39v24.14h10.2c2.09,0,3.83-.37,5.22-1.11,1.39-.74,2.36-1.78,2.9-3.14.54-1.36.91-2.62,1.1-3.8.19-1.18.29-2.56.29-4.16h3.01v27.68h-3.01c0-1.65-.08-3.05-.23-4.2-.16-1.15-.52-2.42-1.1-3.8-.58-1.38-1.57-2.45-2.96-3.18-1.39-.74-3.13-1.11-5.22-1.11h-10.2v25.2c0,1.59,1.04,2.39,3.13,2.39h18.55c2.09,0,4.35-.37,6.78-1.11,2.43-.74,4.42-1.87,5.97-3.4,1.55-1.65,2.88-3.83,4-6.54,1.12-2.71,1.83-5.04,2.14-6.99l.46-2.83h2.9l-1.39,23.7h-64.69Z"/>
    <path class="cls-1" d="M152.24,42.22h2.78c.78,6.66,4,12.63,9.64,17.91,5.64,5.28,11.8,7.92,18.46,7.92,6.32,0,10.92-1.18,13.82-3.54,2.89-2.36,4.34-5.19,4.34-8.49,0-2.89-1.13-5.16-3.39-6.81-2.26-1.65-5.58-3.12-9.94-4.42l-17.62-5.4c-11.9-3.59-17.85-9.61-17.85-18.04,0-5.66,2.2-9.85,6.61-12.56,4.41-2.71,9.92-4.07,16.53-4.07,3.08,0,6.09.55,9.02,1.64,2.93,1.09,5.55,2.31,7.86,3.67,1.85,1.06,3.31,1.59,4.39,1.59,1.31,0,2.08-.71,2.31-2.12l.46-3.18h2.78l1.16,22.99h-2.78c-1.85-6.37-5.24-11.59-10.18-15.65-4.93-4.07-10.25-6.1-15.95-6.1-4.31,0-7.86,1.08-10.63,3.23-2.78,2.15-4.16,5.14-4.16,8.98,0,2.65.85,4.72,2.55,6.19,1.7,1.47,4.21,2.74,7.54,3.8l22.4,6.76c5.44,1.6,9.52,3.87,12.24,6.83,2.72,2.96,4.08,6.06,4.08,9.31,0,4.89-2.16,9.15-6.48,12.78-4.32,3.63-10.69,5.44-19.09,5.44-2.85,0-5.84-.5-8.96-1.5-3.12-1-5.1-1.74-5.95-2.21-.85-.47-2.24-1.22-4.16-2.26-1.93-1.03-3.09-1.64-3.48-1.81s-.75-.27-1.06-.27c-.7,0-1.37.31-2.03.93-.65.62-1.07,1.58-1.24,2.87l-.52,3.54h-2.67l-.81-27.95Z"/>
    <path class="cls-1" d="M215.73,69.28v-2.83h4.29c4.48,0,7.73-2.15,9.74-6.45l25.16-53.68h2.9l25.16,56.25c1.39,2.59,3.71,3.89,6.96,3.89h6.49v2.83h-35.96v-2.83h7.65c1.16,0,2.13-.22,2.9-.66.77-.44,1.16-.96,1.16-1.55,0-.77-.16-1.41-.46-1.94l-5.1-11.59h-26l-2.77,5.96c-1.2,2.31-1.8,4.04-1.8,5.19,0,1.21.47,2.28,1.42,3.2.95.92,2.5,1.38,4.67,1.38h6.14v2.83h-32.54ZM242.15,47.53h22.91l-11.65-25.87-11.26,25.87Z"/>
  </g>
  <g>
    <path class="cls-1" d="M0,112.77h2.78c.78,6.66,4,12.63,9.64,17.91,5.64,5.28,11.8,7.92,18.46,7.92,6.32,0,10.92-1.18,13.82-3.54,2.89-2.36,4.34-5.19,4.34-8.49,0-2.89-1.13-5.16-3.39-6.81-2.26-1.65-5.58-3.12-9.94-4.42l-17.62-5.4C6.18,106.34.23,100.33.23,91.9c0-5.66,2.2-9.85,6.61-12.56,4.41-2.71,9.92-4.07,16.53-4.07,3.08,0,6.09.55,9.02,1.64,2.93,1.09,5.55,2.31,7.86,3.67,1.85,1.06,3.31,1.59,4.39,1.59,1.31,0,2.08-.71,2.31-2.12l.46-3.18h2.78l1.16,22.99h-2.78c-1.85-6.37-5.24-11.59-10.18-15.65-4.93-4.07-10.25-6.1-15.95-6.1-4.31,0-7.86,1.08-10.63,3.23-2.78,2.15-4.16,5.14-4.16,8.98,0,2.65.85,4.72,2.55,6.19,1.7,1.47,4.21,2.74,7.54,3.8l22.4,6.76c5.44,1.6,9.52,3.87,12.24,6.83,2.72,2.96,4.08,6.06,4.08,9.31,0,4.89-2.16,9.15-6.48,12.78-4.32,3.63-10.69,5.44-19.09,5.44-2.85,0-5.84-.5-8.96-1.5-3.12-1-5.1-1.74-5.95-2.21-.85-.47-2.24-1.22-4.16-2.26-1.93-1.03-3.09-1.64-3.48-1.81s-.75-.27-1.06-.27c-.7,0-1.37.31-2.03.93-.65.62-1.07,1.58-1.24,2.87l-.52,3.54H.81l-.81-27.95Z"/>
    <path class="cls-2" d="M68.86,139.83v-2.83h8.35c2.09,0,3.13-.8,3.13-2.39v-52.53c0-1.59-1.04-2.39-3.13-2.39h-8.35v-2.83h64.69l.46,19.99h-2.9l-.12-1.77c-.16-1.24-.62-2.86-1.39-4.86-.77-2-1.85-3.8-3.25-5.39-2.94-3.42-7.46-5.13-13.56-5.13h-18.67c-2.09,0-3.13.8-3.13,2.39v24.14h10.2c2.09,0,3.83-.37,5.22-1.11,1.39-.74,2.36-1.78,2.9-3.14.54-1.36.91-2.62,1.1-3.8.19-1.18.29-2.56.29-4.16h3.01v27.68h-3.01c0-1.65-.08-3.05-.23-4.2-.16-1.15-.52-2.42-1.1-3.8-.58-1.38-1.57-2.45-2.96-3.18-1.39-.74-3.13-1.11-5.22-1.11h-10.2v25.2c0,1.59,1.04,2.39,3.13,2.39h18.55c2.09,0,4.35-.37,6.78-1.11,2.43-.74,4.42-1.87,5.97-3.4,1.55-1.65,2.88-3.83,4-6.54,1.12-2.71,1.83-5.04,2.14-6.99l.46-2.83h2.9l-1.39,23.7h-64.69Z"/>
    <path class="cls-1" d="M151.87,112.77h2.78c.78,6.66,4,12.63,9.64,17.91,5.64,5.28,11.8,7.92,18.46,7.92,6.32,0,10.92-1.18,13.82-3.54,2.89-2.36,4.34-5.19,4.34-8.49,0-2.89-1.13-5.16-3.39-6.81-2.26-1.65-5.58-3.12-9.94-4.42l-17.62-5.4c-11.9-3.59-17.85-9.61-17.85-18.04,0-5.66,2.2-9.85,6.61-12.56,4.41-2.71,9.92-4.07,16.53-4.07,3.08,0,6.09.55,9.02,1.64,2.93,1.09,5.55,2.31,7.86,3.67,1.85,1.06,3.31,1.59,4.39,1.59,1.31,0,2.08-.71,2.31-2.12l.46-3.18h2.78l1.16,22.99h-2.78c-1.85-6.37-5.24-11.59-10.18-15.65-4.93-4.07-10.25-6.1-15.95-6.1-4.31,0-7.86,1.08-10.63,3.23-2.78,2.15-4.16,5.14-4.16,8.98,0,2.65.85,4.72,2.55,6.19,1.7,1.47,4.21,2.74,7.54,3.8l22.4,6.76c5.44,1.6,9.52,3.87,12.24,6.83,2.72,2.96,4.08,6.06,4.08,9.31,0,4.89-2.16,9.15-6.48,12.78-4.32,3.63-10.69,5.44-19.09,5.44-2.85,0-5.84-.5-8.96-1.5-3.12-1-5.1-1.74-5.95-2.21-.85-.47-2.24-1.22-4.16-2.26-1.93-1.03-3.09-1.64-3.48-1.81s-.75-.27-1.06-.27c-.7,0-1.37.31-2.03.93-.65.62-1.07,1.58-1.24,2.87l-.52,3.54h-2.67l-.81-27.95Z"/>
    <path class="cls-1" d="M216.1,139.83v-2.83h4.29c4.48,0,7.73-2.15,9.74-6.45l25.16-53.68h2.9l25.16,56.25c1.39,2.59,3.71,3.89,6.96,3.89h6.49v2.83h-35.96v-2.83h7.65c1.16,0,2.13-.22,2.9-.66.77-.44,1.16-.96,1.16-1.55,0-.77-.16-1.41-.46-1.94l-5.1-11.59h-26l-2.77,5.96c-1.2,2.31-1.8,4.04-1.8,5.19,0,1.21.47,2.28,1.42,3.2.95.92,2.5,1.38,4.67,1.38h6.14v2.83h-32.54ZM242.52,118.07h22.91l-11.65-25.87-11.26,25.87Z"/>
  </g>
  <g>
    <path class="cls-1" d="M0,182.71h2.78c.78,6.66,4,12.63,9.64,17.91,5.64,5.28,11.8,7.92,18.46,7.92,6.32,0,10.92-1.18,13.82-3.54s4.34-5.19,4.34-8.49c0-2.89-1.13-5.16-3.39-6.81-2.26-1.65-5.58-3.12-9.94-4.42l-17.62-5.4C6.18,176.28.23,170.27.23,161.84c0-5.66,2.2-9.85,6.61-12.56,4.41-2.71,9.92-4.07,16.53-4.07,3.08,0,6.09.55,9.02,1.64,2.93,1.09,5.55,2.31,7.86,3.67,1.85,1.06,3.31,1.59,4.39,1.59,1.31,0,2.08-.71,2.31-2.12l.46-3.18h2.78l1.16,22.99h-2.78c-1.85-6.37-5.24-11.59-10.18-15.65-4.93-4.07-10.25-6.1-15.95-6.1-4.31,0-7.86,1.08-10.63,3.23-2.78,2.15-4.16,5.14-4.16,8.98,0,2.65.85,4.72,2.55,6.19,1.7,1.47,4.21,2.74,7.54,3.8l22.4,6.76c5.44,1.6,9.52,3.87,12.24,6.83,2.72,2.96,4.08,6.06,4.08,9.31,0,4.89-2.16,9.15-6.48,12.78-4.32,3.63-10.69,5.44-19.09,5.44-2.85,0-5.84-.5-8.96-1.5-3.12-1-5.1-1.74-5.95-2.21-.85-.47-2.24-1.22-4.16-2.26-1.93-1.03-3.09-1.64-3.48-1.81s-.75-.27-1.06-.27c-.7,0-1.37.31-2.03.93-.65.62-1.07,1.58-1.24,2.87l-.52,3.54H.81l-.81-27.95Z"/>
    <path class="cls-1" d="M68.86,209.77v-2.83h8.35c2.09,0,3.13-.8,3.13-2.39v-52.53c0-1.59-1.04-2.39-3.13-2.39h-8.35v-2.83h64.69l.46,19.99h-2.9l-.12-1.77c-.16-1.24-.62-2.86-1.39-4.86-.77-2-1.85-3.8-3.25-5.39-2.94-3.42-7.46-5.13-13.56-5.13h-18.67c-2.09,0-3.13.8-3.13,2.39v24.14h10.2c2.09,0,3.83-.37,5.22-1.11,1.39-.74,2.36-1.78,2.9-3.14.54-1.36.91-2.62,1.1-3.8.19-1.18.29-2.56.29-4.16h3.01v27.68h-3.01c0-1.65-.08-3.05-.23-4.2-.16-1.15-.52-2.42-1.1-3.8-.58-1.38-1.57-2.45-2.96-3.18-1.39-.74-3.13-1.11-5.22-1.11h-10.2v25.2c0,1.59,1.04,2.39,3.13,2.39h18.55c2.09,0,4.35-.37,6.78-1.11,2.43-.74,4.42-1.87,5.97-3.4,1.55-1.65,2.88-3.83,4-6.54,1.12-2.71,1.83-5.04,2.14-6.99l.46-2.83h2.9l-1.39,23.7h-64.69Z"/>
    <path class="cls-2" d="M151.87,182.71h2.78c.78,6.66,4,12.63,9.64,17.91,5.64,5.28,11.8,7.92,18.46,7.92,6.32,0,10.92-1.18,13.82-3.54,2.89-2.36,4.34-5.19,4.34-8.49,0-2.89-1.13-5.16-3.39-6.81-2.26-1.65-5.58-3.12-9.94-4.42l-17.62-5.4c-11.9-3.59-17.85-9.61-17.85-18.04,0-5.66,2.2-9.85,6.61-12.56,4.41-2.71,9.92-4.07,16.53-4.07,3.08,0,6.09.55,9.02,1.64,2.93,1.09,5.55,2.31,7.86,3.67,1.85,1.06,3.31,1.59,4.39,1.59,1.31,0,2.08-.71,2.31-2.12l.46-3.18h2.78l1.16,22.99h-2.78c-1.85-6.37-5.24-11.59-10.18-15.65-4.93-4.07-10.25-6.1-15.95-6.1-4.31,0-7.86,1.08-10.63,3.23-2.78,2.15-4.16,5.14-4.16,8.98,0,2.65.85,4.72,2.55,6.19,1.7,1.47,4.21,2.74,7.54,3.8l22.4,6.76c5.44,1.6,9.52,3.87,12.24,6.83,2.72,2.96,4.08,6.06,4.08,9.31,0,4.89-2.16,9.15-6.48,12.78-4.32,3.63-10.69,5.44-19.09,5.44-2.85,0-5.84-.5-8.96-1.5-3.12-1-5.1-1.74-5.95-2.21-.85-.47-2.24-1.22-4.16-2.26-1.93-1.03-3.09-1.64-3.48-1.81s-.75-.27-1.06-.27c-.7,0-1.37.31-2.03.93-.65.62-1.07,1.58-1.24,2.87l-.52,3.54h-2.67l-.81-27.95Z"/>
    <path class="cls-1" d="M216.1,209.77v-2.83h4.29c4.48,0,7.73-2.15,9.74-6.45l25.16-53.68h2.9l25.16,56.25c1.39,2.59,3.71,3.89,6.96,3.89h6.49v2.83h-35.96v-2.83h7.65c1.16,0,2.13-.22,2.9-.66.77-.44,1.16-.96,1.16-1.55,0-.77-.16-1.41-.46-1.94l-5.1-11.59h-26l-2.77,5.96c-1.2,2.31-1.8,4.04-1.8,5.19,0,1.21.47,2.28,1.42,3.2.95.92,2.5,1.38,4.67,1.38h6.14v2.83h-32.54ZM242.52,188.02h22.91l-11.65-25.87-11.26,25.87Z"/>
  </g>
  <g>
    <path class="cls-1" d="M0,253.23h2.78c.78,6.66,4,12.63,9.64,17.91,5.64,5.28,11.8,7.92,18.46,7.92,6.32,0,10.92-1.18,13.82-3.54s4.34-5.19,4.34-8.49c0-2.89-1.13-5.16-3.39-6.81-2.26-1.65-5.58-3.12-9.94-4.42l-17.62-5.4C6.18,246.81.23,240.79.23,232.36c0-5.66,2.2-9.85,6.61-12.56,4.41-2.71,9.92-4.07,16.53-4.07,3.08,0,6.09.55,9.02,1.64,2.93,1.09,5.55,2.31,7.86,3.67,1.85,1.06,3.31,1.59,4.39,1.59,1.31,0,2.08-.71,2.31-2.12l.46-3.18h2.78l1.16,22.99h-2.78c-1.85-6.37-5.24-11.59-10.18-15.65-4.93-4.07-10.25-6.1-15.95-6.1-4.31,0-7.86,1.08-10.63,3.23-2.78,2.15-4.16,5.14-4.16,8.98,0,2.65.85,4.72,2.55,6.19,1.7,1.47,4.21,2.74,7.54,3.8l22.4,6.76c5.44,1.6,9.52,3.87,12.24,6.83,2.72,2.96,4.08,6.06,4.08,9.31,0,4.89-2.16,9.15-6.48,12.78-4.32,3.63-10.69,5.44-19.09,5.44-2.85,0-5.84-.5-8.96-1.5-3.12-1-5.1-1.74-5.95-2.21-.85-.47-2.24-1.22-4.16-2.26-1.93-1.03-3.09-1.64-3.48-1.81s-.75-.27-1.06-.27c-.7,0-1.37.31-2.03.93-.65.62-1.07,1.58-1.24,2.87l-.52,3.54H.81l-.81-27.95Z"/>
    <path class="cls-1" d="M68.86,280.29v-2.83h8.35c2.09,0,3.13-.8,3.13-2.39v-52.53c0-1.59-1.04-2.39-3.13-2.39h-8.35v-2.83h64.69l.46,19.99h-2.9l-.12-1.77c-.16-1.24-.62-2.86-1.39-4.86-.77-2-1.85-3.8-3.25-5.39-2.94-3.42-7.46-5.13-13.56-5.13h-18.67c-2.09,0-3.13.8-3.13,2.39v24.14h10.2c2.09,0,3.83-.37,5.22-1.11,1.39-.74,2.36-1.78,2.9-3.14.54-1.36.91-2.62,1.1-3.8.19-1.18.29-2.56.29-4.16h3.01v27.68h-3.01c0-1.65-.08-3.05-.23-4.2-.16-1.15-.52-2.42-1.1-3.8-.58-1.38-1.57-2.45-2.96-3.18-1.39-.74-3.13-1.11-5.22-1.11h-10.2v25.2c0,1.59,1.04,2.39,3.13,2.39h18.55c2.09,0,4.35-.37,6.78-1.11,2.43-.74,4.42-1.87,5.97-3.4,1.55-1.65,2.88-3.83,4-6.54,1.12-2.71,1.83-5.04,2.14-6.99l.46-2.83h2.9l-1.39,23.7h-64.69Z"/>
    <path class="cls-1" d="M151.87,253.23h2.78c.78,6.66,4,12.63,9.64,17.91,5.64,5.28,11.8,7.92,18.46,7.92,6.32,0,10.92-1.18,13.82-3.54s4.34-5.19,4.34-8.49c0-2.89-1.13-5.16-3.39-6.81-2.26-1.65-5.58-3.12-9.94-4.42l-17.62-5.4c-11.9-3.59-17.85-9.61-17.85-18.04,0-5.66,2.2-9.85,6.61-12.56,4.41-2.71,9.92-4.07,16.53-4.07,3.08,0,6.09.55,9.02,1.64,2.93,1.09,5.55,2.31,7.86,3.67,1.85,1.06,3.31,1.59,4.39,1.59,1.31,0,2.08-.71,2.31-2.12l.46-3.18h2.78l1.16,22.99h-2.78c-1.85-6.37-5.24-11.59-10.18-15.65-4.93-4.07-10.25-6.1-15.95-6.1-4.31,0-7.86,1.08-10.63,3.23-2.78,2.15-4.16,5.14-4.16,8.98,0,2.65.85,4.72,2.55,6.19,1.7,1.47,4.21,2.74,7.54,3.8l22.4,6.76c5.44,1.6,9.52,3.87,12.24,6.83,2.72,2.96,4.08,6.06,4.08,9.31,0,4.89-2.16,9.15-6.48,12.78-4.32,3.63-10.69,5.44-19.09,5.44-2.85,0-5.84-.5-8.96-1.5-3.12-1-5.1-1.74-5.95-2.21-.85-.47-2.24-1.22-4.16-2.26-1.93-1.03-3.09-1.64-3.48-1.81s-.75-.27-1.06-.27c-.7,0-1.37.31-2.03.93-.65.62-1.07,1.58-1.24,2.87l-.52,3.54h-2.67l-.81-27.95Z"/>
    <path class="cls-2" d="M216.1,280.29v-2.83h4.29c4.48,0,7.73-2.15,9.74-6.45l25.16-53.68h2.9l25.16,56.25c1.39,2.59,3.71,3.89,6.96,3.89h6.49v2.83h-35.96v-2.83h7.65c1.16,0,2.13-.22,2.9-.66.77-.44,1.16-.96,1.16-1.55,0-.77-.16-1.41-.46-1.94l-5.1-11.59h-26l-2.77,5.96c-1.2,2.31-1.8,4.04-1.8,5.19,0,1.21.47,2.28,1.42,3.2.95.92,2.5,1.38,4.67,1.38h6.14v2.83h-32.54ZM242.52,258.54h22.91l-11.65-25.87-11.26,25.87Z"/>
  </g>
  <g>
    <path class="cls-1" d="M359.66,164.63h12.22c3.44,29.25,17.55,55.46,42.33,78.62,24.78,23.17,51.8,34.75,81.06,34.75,27.75,0,47.96-5.17,60.66-15.53,12.69-10.35,19.04-22.78,19.04-37.27,0-12.68-4.97-22.65-14.9-29.9-9.93-7.24-24.48-13.72-43.64-19.41l-77.37-23.69c-52.26-15.78-78.39-42.19-78.39-79.21,0-24.85,9.67-43.23,29.03-55.14C409.05,5.96,433.25,0,462.27,0c13.54,0,26.73,2.4,39.58,7.18,12.85,4.79,24.36,10.16,34.51,16.11,8.11,4.66,14.55,6.99,19.29,6.99,5.74,0,9.13-3.11,10.15-9.32l2.03-13.98h12.22l5.09,100.95h-12.21c-8.13-27.96-23.02-50.87-44.67-68.72-21.65-17.86-45-26.79-70.04-26.79-18.94,0-34.51,4.72-46.69,14.18-12.18,9.45-18.27,22.59-18.27,39.41,0,11.65,3.73,20.71,11.19,27.18,7.46,6.47,18.48,12.04,33.09,16.7l98.34,29.69c23.89,7.02,41.8,17.01,53.75,29.99,11.94,12.98,17.92,26.6,17.92,40.87,0,21.49-9.49,40.19-28.46,56.11-18.98,15.92-46.91,23.87-83.82,23.87-12.52,0-25.63-2.2-39.34-6.6-13.7-4.4-22.41-7.63-26.13-9.71-3.72-2.07-9.82-5.37-18.28-9.9-8.46-4.52-13.55-7.18-15.29-7.96-1.73-.78-3.28-1.16-4.67-1.16-3.06,0-6.03,1.36-8.89,4.08-2.87,2.72-4.68,6.93-5.45,12.62l-2.3,15.53h-11.7l-3.56-122.69Z"/>
    <path class="cls-1" d="M662,283.44v-12.43h36.65c9.16,0,13.74-3.49,13.74-10.48V29.9c0-6.99-4.58-10.48-13.74-10.48h-36.65V6.99h284.02l2.04,87.75h-12.72l-.51-7.76c-.68-5.44-2.72-12.55-6.11-21.36-3.4-8.8-8.14-16.69-14.25-23.68-12.9-15.01-32.75-22.52-59.55-22.52h-81.95c-9.16,0-13.74,3.49-13.74,10.48v106h44.79c9.16,0,16.8-1.61,22.91-4.85,6.11-3.23,10.35-7.83,12.72-13.78,2.37-5.96,3.99-11.52,4.84-16.7.84-5.17,1.27-11.26,1.27-18.25h13.23v121.53h-13.23c0-7.24-.34-13.4-1.02-18.45-.68-5.05-2.29-10.61-4.84-16.7-2.54-6.08-6.87-10.74-12.98-13.98-6.11-3.23-13.74-4.85-22.91-4.85h-44.79v110.66c0,6.99,4.58,10.48,13.74,10.48h81.44c9.16,0,19.09-1.61,29.78-4.85,10.69-3.23,19.42-8.21,26.21-14.95,6.78-7.24,12.64-16.82,17.56-28.73,4.92-11.9,8.06-22.13,9.41-30.67l2.04-12.42h12.72l-6.11,104.06h-284.02Z"/>
    <path class="cls-1" d="M1026.43,164.63h12.22c3.44,29.25,17.55,55.46,42.33,78.62,24.78,23.17,51.8,34.75,81.06,34.75,27.75,0,47.96-5.17,60.66-15.53,12.69-10.35,19.04-22.78,19.04-37.27,0-12.68-4.97-22.65-14.9-29.9-9.93-7.24-24.48-13.72-43.64-19.41l-77.37-23.69c-52.26-15.78-78.39-42.19-78.39-79.21,0-24.85,9.67-43.23,29.03-55.14,19.35-11.9,43.54-17.86,72.57-17.86,13.54,0,26.73,2.4,39.58,7.18,12.85,4.79,24.36,10.16,34.51,16.11,8.11,4.66,14.55,6.99,19.29,6.99,5.74,0,9.13-3.11,10.15-9.32l2.03-13.98h12.22l5.09,100.95h-12.21c-8.13-27.96-23.02-50.87-44.67-68.72-21.65-17.86-45-26.79-70.04-26.79-18.94,0-34.51,4.72-46.69,14.18-12.18,9.45-18.27,22.59-18.27,39.41,0,11.65,3.73,20.71,11.19,27.18,7.46,6.47,18.48,12.04,33.09,16.7l98.34,29.69c23.89,7.02,41.8,17.01,53.75,29.99,11.94,12.98,17.92,26.6,17.92,40.87,0,21.49-9.49,40.19-28.46,56.11-18.98,15.92-46.91,23.87-83.82,23.87-12.52,0-25.63-2.2-39.34-6.6-13.7-4.4-22.41-7.63-26.13-9.71-3.72-2.07-9.82-5.37-18.28-9.9-8.46-4.52-13.55-7.18-15.29-7.96-1.73-.78-3.28-1.16-4.67-1.16-3.06,0-6.03,1.36-8.89,4.08-2.87,2.72-4.68,6.93-5.45,12.62l-2.3,15.53h-11.7l-3.56-122.69Z"/>
    <path class="cls-1" d="M1305.17,283.44v-12.43h18.83c19.68,0,33.93-9.44,42.76-28.34L1477.2,6.99h12.72l110.46,246.94c6.11,11.39,16.29,17.08,30.54,17.08h28.5v12.43h-157.87v-12.43h33.59c5.09,0,9.33-.96,12.72-2.9,3.39-1.94,5.09-4.2,5.09-6.79,0-3.36-.68-6.21-2.04-8.53l-22.38-50.89h-114.14l-12.18,26.17c-5.26,10.14-7.88,17.74-7.88,22.8,0,5.33,2.08,10.01,6.23,14.07,4.15,4.05,10.99,6.08,20.49,6.08h26.98v12.43h-142.88ZM1421.16,187.92h100.57l-51.15-113.58-49.42,113.58Z"/>
  </g>
  <text/>
</svg>