<?xml version="1.0" encoding="UTF-8"?>
<svg id="Ebene_1" data-name="Ebene 1" xmlns="http://www.w3.org/2000/svg" viewBox="0 0 328.32 306.61">
  <defs>
    <style>
      .cls-1, .cls-2 {
        stroke-width: 0px;
      }

      .cls-2 {
        fill: #e54545;
      }
    </style>
  </defs>
  <g>
    <path class="cls-2" d="M.41,41.48h3.08c.87,7.37,4.42,13.97,10.67,19.81,6.24,5.84,13.05,8.76,20.42,8.76,6.99,0,12.09-1.3,15.28-3.91,3.2-2.61,4.8-5.74,4.8-9.39,0-3.2-1.25-5.71-3.75-7.53-2.5-1.83-6.17-3.46-11-4.89l-19.49-5.97C7.25,34.37.67,27.72.67,18.39.67,12.13,3.1,7.5,7.98,4.5,12.86,1.5,18.95,0,26.27,0c3.41,0,6.74.6,9.97,1.81,3.24,1.21,6.14,2.56,8.7,4.06,2.04,1.17,3.67,1.76,4.86,1.76,1.45,0,2.3-.78,2.56-2.35l.51-3.52h3.08l1.28,25.44h-3.08c-2.05-7.04-5.8-12.82-11.26-17.32-5.46-4.5-11.34-6.75-17.65-6.75-4.77,0-8.69,1.19-11.76,3.57s-4.6,5.69-4.6,9.93c0,2.93.94,5.22,2.82,6.85,1.88,1.63,4.66,3.03,8.34,4.21l24.78,7.48c6.02,1.77,10.53,4.29,13.54,7.56,3.01,3.27,4.51,6.7,4.51,10.3,0,5.41-2.39,10.13-7.17,14.14-4.78,4.01-11.82,6.02-21.12,6.02-3.15,0-6.46-.55-9.91-1.66-3.45-1.11-5.65-1.92-6.58-2.45-.94-.52-2.47-1.35-4.61-2.5-2.13-1.14-3.41-1.81-3.85-2.01s-.83-.29-1.18-.29c-.77,0-1.52.34-2.24,1.03-.72.68-1.18,1.75-1.37,3.18l-.58,3.91H1.31l-.9-30.91Z"/>
    <path class="cls-1" d="M76.59,71.42v-3.13h9.23c2.31,0,3.46-.88,3.46-2.64V7.53c0-1.76-1.15-2.64-3.46-2.64h-9.23V1.76h71.56l.51,22.11h-3.21l-.13-1.96c-.17-1.37-.69-3.16-1.54-5.38-.86-2.22-2.05-4.21-3.59-5.97-3.25-3.78-8.25-5.67-15.01-5.67h-20.65c-2.31,0-3.46.88-3.46,2.64v26.71h11.29c2.31,0,4.23-.41,5.77-1.22,1.54-.81,2.61-1.97,3.21-3.47.6-1.5,1-2.9,1.22-4.21.21-1.3.32-2.84.32-4.6h3.33v30.62h-3.33c0-1.83-.09-3.38-.26-4.65-.17-1.27-.58-2.67-1.22-4.21-.64-1.53-1.73-2.71-3.27-3.52-1.54-.81-3.46-1.22-5.77-1.22h-11.29v27.88c0,1.76,1.15,2.64,3.46,2.64h20.52c2.31,0,4.81-.41,7.5-1.22,2.69-.81,4.89-2.07,6.6-3.77,1.71-1.82,3.18-4.24,4.42-7.24,1.24-3,2.03-5.58,2.37-7.73l.51-3.13h3.21l-1.54,26.22h-71.56Z"/>
    <path class="cls-1" d="M168.42,41.48h3.08c.87,7.37,4.42,13.97,10.67,19.81,6.24,5.84,13.05,8.76,20.42,8.76,6.99,0,12.09-1.3,15.28-3.91,3.2-2.61,4.8-5.74,4.8-9.39,0-3.2-1.25-5.71-3.75-7.53-2.5-1.83-6.17-3.46-11-4.89l-19.49-5.97c-13.17-3.98-19.75-10.63-19.75-19.96,0-6.26,2.44-10.89,7.31-13.89,4.88-3,10.97-4.5,18.29-4.5,3.41,0,6.74.6,9.97,1.81,3.24,1.21,6.14,2.56,8.7,4.06,2.04,1.17,3.67,1.76,4.86,1.76,1.45,0,2.3-.78,2.56-2.35l.51-3.52h3.08l1.28,25.44h-3.08c-2.05-7.04-5.8-12.82-11.26-17.32-5.46-4.5-11.34-6.75-17.65-6.75-4.77,0-8.69,1.19-11.76,3.57s-4.6,5.69-4.6,9.93c0,2.93.94,5.22,2.82,6.85,1.88,1.63,4.66,3.03,8.34,4.21l24.78,7.48c6.02,1.77,10.53,4.29,13.54,7.56,3.01,3.27,4.51,6.7,4.51,10.3,0,5.41-2.39,10.13-7.17,14.14-4.78,4.01-11.82,6.02-21.12,6.02-3.15,0-6.46-.55-9.91-1.66-3.45-1.11-5.65-1.92-6.58-2.45-.94-.52-2.47-1.35-4.61-2.5-2.13-1.14-3.41-1.81-3.85-2.01s-.83-.29-1.18-.29c-.77,0-1.52.34-2.24,1.03-.72.68-1.18,1.75-1.37,3.18l-.58,3.91h-2.95l-.9-30.91Z"/>
    <path class="cls-1" d="M238.65,71.42v-3.13h4.75c4.96,0,8.55-2.38,10.77-7.14L282,1.76h3.21l27.83,62.22c1.54,2.87,4.1,4.3,7.7,4.3h7.18v3.13h-39.78v-3.13h8.46c1.28,0,2.35-.24,3.21-.73.85-.49,1.28-1.06,1.28-1.71,0-.85-.17-1.56-.51-2.15l-5.64-12.82h-28.76l-3.07,6.59c-1.32,2.55-1.99,4.47-1.99,5.74,0,1.34.52,2.52,1.57,3.54,1.05,1.02,2.77,1.53,5.16,1.53h6.8v3.13h-36ZM267.88,47.35h25.34l-12.89-28.62-12.45,28.62Z"/>
  </g>
  <g>
    <path class="cls-1" d="M0,119.53h3.08c.87,7.37,4.42,13.97,10.67,19.81,6.24,5.84,13.05,8.76,20.42,8.76,6.99,0,12.09-1.3,15.28-3.91,3.2-2.61,4.8-5.74,4.8-9.39,0-3.2-1.25-5.71-3.75-7.53-2.5-1.83-6.17-3.46-11-4.89l-19.49-5.97C6.84,112.42.26,105.76.26,96.44c0-6.26,2.44-10.89,7.31-13.89,4.88-3,10.97-4.5,18.29-4.5,3.41,0,6.74.6,9.97,1.81,3.24,1.21,6.14,2.56,8.7,4.06,2.04,1.17,3.67,1.76,4.86,1.76,1.45,0,2.3-.78,2.56-2.35l.51-3.52h3.08l1.28,25.44h-3.08c-2.05-7.04-5.8-12.82-11.26-17.32-5.46-4.5-11.34-6.75-17.65-6.75-4.77,0-8.69,1.19-11.76,3.57-3.07,2.38-4.6,5.69-4.6,9.93,0,2.93.94,5.22,2.82,6.85,1.88,1.63,4.66,3.03,8.34,4.21l24.78,7.48c6.02,1.77,10.53,4.29,13.54,7.56,3.01,3.27,4.51,6.7,4.51,10.3,0,5.41-2.39,10.13-7.17,14.14-4.78,4.01-11.82,6.02-21.12,6.02-3.15,0-6.46-.55-9.91-1.66-3.45-1.11-5.65-1.92-6.58-2.45-.94-.52-2.47-1.35-4.61-2.5-2.13-1.14-3.41-1.81-3.85-2.01s-.83-.29-1.18-.29c-.77,0-1.52.34-2.24,1.03-.72.68-1.18,1.75-1.37,3.18l-.58,3.91H.9l-.9-30.91Z"/>
    <path class="cls-2" d="M76.18,149.46v-3.13h9.23c2.31,0,3.46-.88,3.46-2.64v-58.11c0-1.76-1.15-2.64-3.46-2.64h-9.23v-3.13h71.56l.51,22.11h-3.21l-.13-1.96c-.17-1.37-.69-3.16-1.54-5.38-.86-2.22-2.05-4.21-3.59-5.97-3.25-3.78-8.25-5.67-15.01-5.67h-20.65c-2.31,0-3.46.88-3.46,2.64v26.71h11.29c2.31,0,4.23-.41,5.77-1.22,1.54-.81,2.61-1.97,3.21-3.47.6-1.5,1-2.9,1.22-4.21.21-1.3.32-2.84.32-4.6h3.33v30.62h-3.33c0-1.83-.09-3.38-.26-4.65-.17-1.27-.58-2.67-1.22-4.21-.64-1.53-1.73-2.71-3.27-3.52-1.54-.81-3.46-1.22-5.77-1.22h-11.29v27.88c0,1.76,1.15,2.64,3.46,2.64h20.52c2.31,0,4.81-.41,7.5-1.22,2.69-.81,4.89-2.07,6.6-3.77,1.71-1.82,3.18-4.24,4.42-7.24,1.24-3,2.03-5.58,2.37-7.73l.51-3.13h3.21l-1.54,26.22h-71.56Z"/>
    <path class="cls-1" d="M168.01,119.53h3.08c.87,7.37,4.42,13.97,10.67,19.81,6.24,5.84,13.05,8.76,20.42,8.76,6.99,0,12.09-1.3,15.28-3.91,3.2-2.61,4.8-5.74,4.8-9.39,0-3.2-1.25-5.71-3.75-7.53-2.5-1.83-6.17-3.46-11-4.89l-19.49-5.97c-13.17-3.98-19.75-10.63-19.75-19.96,0-6.26,2.44-10.89,7.31-13.89,4.88-3,10.97-4.5,18.29-4.5,3.41,0,6.74.6,9.97,1.81,3.24,1.21,6.14,2.56,8.7,4.06,2.04,1.17,3.67,1.76,4.86,1.76,1.45,0,2.3-.78,2.56-2.35l.51-3.52h3.08l1.28,25.44h-3.08c-2.05-7.04-5.8-12.82-11.26-17.32-5.46-4.5-11.34-6.75-17.65-6.75-4.77,0-8.69,1.19-11.76,3.57-3.07,2.38-4.6,5.69-4.6,9.93,0,2.93.94,5.22,2.82,6.85,1.88,1.63,4.66,3.03,8.34,4.21l24.78,7.48c6.02,1.77,10.53,4.29,13.54,7.56,3.01,3.27,4.51,6.7,4.51,10.3,0,5.41-2.39,10.13-7.17,14.14-4.78,4.01-11.82,6.02-21.12,6.02-3.15,0-6.46-.55-9.91-1.66-3.45-1.11-5.65-1.92-6.58-2.45-.94-.52-2.47-1.35-4.61-2.5-2.13-1.14-3.41-1.81-3.85-2.01s-.83-.29-1.18-.29c-.77,0-1.52.34-2.24,1.03-.72.68-1.18,1.75-1.37,3.18l-.58,3.91h-2.95l-.9-30.91Z"/>
    <path class="cls-1" d="M239.06,149.46v-3.13h4.75c4.96,0,8.55-2.38,10.77-7.14l27.83-59.39h3.21l27.83,62.22c1.54,2.87,4.1,4.3,7.7,4.3h7.18v3.13h-39.78v-3.13h8.46c1.28,0,2.35-.24,3.21-.73.85-.49,1.28-1.06,1.28-1.71,0-.85-.17-1.56-.51-2.15l-5.64-12.82h-28.76l-3.07,6.59c-1.32,2.55-1.99,4.47-1.99,5.74,0,1.34.52,2.52,1.57,3.54,1.05,1.02,2.77,1.53,5.16,1.53h6.8v3.13h-36ZM268.29,125.39h25.34l-12.89-28.62-12.45,28.62Z"/>
  </g>
  <g>
    <path class="cls-1" d="M0,196.9h3.08c.87,7.37,4.42,13.97,10.67,19.81,6.24,5.84,13.05,8.76,20.42,8.76,6.99,0,12.09-1.3,15.28-3.91,3.2-2.61,4.8-5.74,4.8-9.39,0-3.2-1.25-5.71-3.75-7.53-2.5-1.83-6.17-3.46-11-4.89l-19.49-5.97c-13.17-3.98-19.75-10.63-19.75-19.96,0-6.26,2.44-10.89,7.31-13.89,4.88-3,10.97-4.5,18.29-4.5,3.41,0,6.74.6,9.97,1.81,3.24,1.21,6.14,2.56,8.7,4.06,2.04,1.17,3.67,1.76,4.86,1.76,1.45,0,2.3-.78,2.56-2.35l.51-3.52h3.08l1.28,25.44h-3.08c-2.05-7.04-5.8-12.82-11.26-17.32-5.46-4.5-11.34-6.75-17.65-6.75-4.77,0-8.69,1.19-11.76,3.57s-4.6,5.69-4.6,9.93c0,2.93.94,5.22,2.82,6.85,1.88,1.63,4.66,3.03,8.34,4.21l24.78,7.48c6.02,1.77,10.53,4.29,13.54,7.56,3.01,3.27,4.51,6.7,4.51,10.3,0,5.41-2.39,10.13-7.17,14.14-4.78,4.01-11.82,6.02-21.12,6.02-3.15,0-6.46-.55-9.91-1.66-3.45-1.11-5.65-1.92-6.58-2.45-.94-.52-2.47-1.35-4.61-2.5-2.13-1.14-3.41-1.81-3.85-2.01s-.83-.29-1.18-.29c-.77,0-1.52.34-2.24,1.03-.72.68-1.18,1.75-1.37,3.18l-.58,3.91H.9l-.9-30.91Z"/>
    <path class="cls-1" d="M76.18,226.83v-3.13h9.23c2.31,0,3.46-.88,3.46-2.64v-58.11c0-1.76-1.15-2.64-3.46-2.64h-9.23v-3.13h71.56l.51,22.11h-3.21l-.13-1.96c-.17-1.37-.69-3.16-1.54-5.38-.86-2.22-2.05-4.21-3.59-5.97-3.25-3.78-8.25-5.67-15.01-5.67h-20.65c-2.31,0-3.46.88-3.46,2.64v26.71h11.29c2.31,0,4.23-.41,5.77-1.22,1.54-.81,2.61-1.97,3.21-3.47.6-1.5,1-2.9,1.22-4.21.21-1.3.32-2.84.32-4.6h3.33v30.62h-3.33c0-1.83-.09-3.38-.26-4.65-.17-1.27-.58-2.67-1.22-4.21-.64-1.53-1.73-2.71-3.27-3.52-1.54-.81-3.46-1.22-5.77-1.22h-11.29v27.88c0,1.76,1.15,2.64,3.46,2.64h20.52c2.31,0,4.81-.41,7.5-1.22,2.69-.81,4.89-2.07,6.6-3.77,1.71-1.82,3.18-4.24,4.42-7.24,1.24-3,2.03-5.58,2.37-7.73l.51-3.13h3.21l-1.54,26.22h-71.56Z"/>
    <path class="cls-2" d="M168.01,196.9h3.08c.87,7.37,4.42,13.97,10.67,19.81,6.24,5.84,13.05,8.76,20.42,8.76,6.99,0,12.09-1.3,15.28-3.91,3.2-2.61,4.8-5.74,4.8-9.39,0-3.2-1.25-5.71-3.75-7.53-2.5-1.83-6.17-3.46-11-4.89l-19.49-5.97c-13.17-3.98-19.75-10.63-19.75-19.96,0-6.26,2.44-10.89,7.31-13.89,4.88-3,10.97-4.5,18.29-4.5,3.41,0,6.74.6,9.97,1.81,3.24,1.21,6.14,2.56,8.7,4.06,2.04,1.17,3.67,1.76,4.86,1.76,1.45,0,2.3-.78,2.56-2.35l.51-3.52h3.08l1.28,25.44h-3.08c-2.05-7.04-5.8-12.82-11.26-17.32-5.46-4.5-11.34-6.75-17.65-6.75-4.77,0-8.69,1.19-11.76,3.57s-4.6,5.69-4.6,9.93c0,2.93.94,5.22,2.82,6.85,1.88,1.63,4.66,3.03,8.34,4.21l24.78,7.48c6.02,1.77,10.53,4.29,13.54,7.56,3.01,3.27,4.51,6.7,4.51,10.3,0,5.41-2.39,10.13-7.17,14.14-4.78,4.01-11.82,6.02-21.12,6.02-3.15,0-6.46-.55-9.91-1.66-3.45-1.11-5.65-1.92-6.58-2.45-.94-.52-2.47-1.35-4.61-2.5-2.13-1.14-3.41-1.81-3.85-2.01s-.83-.29-1.18-.29c-.77,0-1.52.34-2.24,1.03-.72.68-1.18,1.75-1.37,3.18l-.58,3.91h-2.95l-.9-30.91Z"/>
    <path class="cls-1" d="M239.06,226.83v-3.13h4.75c4.96,0,8.55-2.38,10.77-7.14l27.83-59.39h3.21l27.83,62.22c1.54,2.87,4.1,4.3,7.7,4.3h7.18v3.13h-39.78v-3.13h8.46c1.28,0,2.35-.24,3.21-.73.85-.49,1.28-1.06,1.28-1.71,0-.85-.17-1.56-.51-2.15l-5.64-12.82h-28.76l-3.07,6.59c-1.32,2.55-1.99,4.47-1.99,5.74,0,1.34.52,2.52,1.57,3.54,1.05,1.02,2.77,1.53,5.16,1.53h6.8v3.13h-36ZM268.29,202.77h25.34l-12.89-28.62-12.45,28.62Z"/>
  </g>
  <g>
    <path class="cls-1" d="M0,274.91h3.08c.87,7.37,4.42,13.97,10.67,19.81,6.24,5.84,13.05,8.76,20.42,8.76,6.99,0,12.09-1.3,15.28-3.91s4.8-5.74,4.8-9.39c0-3.2-1.25-5.71-3.75-7.53-2.5-1.83-6.17-3.46-11-4.89l-19.49-5.97c-13.17-3.98-19.75-10.63-19.75-19.96,0-6.26,2.44-10.89,7.31-13.89,4.88-3,10.97-4.5,18.29-4.5,3.41,0,6.74.6,9.97,1.81,3.24,1.21,6.14,2.56,8.7,4.06,2.04,1.17,3.67,1.76,4.86,1.76,1.45,0,2.3-.78,2.56-2.35l.51-3.52h3.08l1.28,25.44h-3.08c-2.05-7.04-5.8-12.82-11.26-17.32-5.46-4.5-11.34-6.75-17.65-6.75-4.77,0-8.69,1.19-11.76,3.57-3.07,2.38-4.6,5.69-4.6,9.93,0,2.93.94,5.22,2.82,6.85,1.88,1.63,4.66,3.03,8.34,4.21l24.78,7.48c6.02,1.77,10.53,4.29,13.54,7.56,3.01,3.27,4.51,6.7,4.51,10.3,0,5.41-2.39,10.13-7.17,14.14-4.78,4.01-11.82,6.02-21.12,6.02-3.15,0-6.46-.55-9.91-1.66-3.45-1.11-5.65-1.92-6.58-2.45-.94-.52-2.47-1.35-4.61-2.5-2.13-1.14-3.41-1.81-3.85-2.01s-.83-.29-1.18-.29c-.77,0-1.52.34-2.24,1.03-.72.68-1.18,1.75-1.37,3.18l-.58,3.91H.9l-.9-30.91Z"/>
    <path class="cls-1" d="M76.18,304.85v-3.13h9.23c2.31,0,3.46-.88,3.46-2.64v-58.11c0-1.76-1.15-2.64-3.46-2.64h-9.23v-3.13h71.56l.51,22.11h-3.21l-.13-1.96c-.17-1.37-.69-3.16-1.54-5.38-.86-2.22-2.05-4.21-3.59-5.97-3.25-3.78-8.25-5.67-15.01-5.67h-20.65c-2.31,0-3.46.88-3.46,2.64v26.71h11.29c2.31,0,4.23-.41,5.77-1.22,1.54-.81,2.61-1.97,3.21-3.47.6-1.5,1-2.9,1.22-4.21.21-1.3.32-2.84.32-4.6h3.33v30.62h-3.33c0-1.83-.09-3.38-.26-4.65-.17-1.27-.58-2.67-1.22-4.21-.64-1.53-1.73-2.71-3.27-3.52-1.54-.81-3.46-1.22-5.77-1.22h-11.29v27.88c0,1.76,1.15,2.64,3.46,2.64h20.52c2.31,0,4.81-.41,7.5-1.22,2.69-.81,4.89-2.07,6.6-3.77,1.71-1.82,3.18-4.24,4.42-7.24,1.24-3,2.03-5.58,2.37-7.73l.51-3.13h3.21l-1.54,26.22h-71.56Z"/>
    <path class="cls-1" d="M168.01,274.91h3.08c.87,7.37,4.42,13.97,10.67,19.81,6.24,5.84,13.05,8.76,20.42,8.76,6.99,0,12.09-1.3,15.28-3.91,3.2-2.61,4.8-5.74,4.8-9.39,0-3.2-1.25-5.71-3.75-7.53-2.5-1.83-6.17-3.46-11-4.89l-19.49-5.97c-13.17-3.98-19.75-10.63-19.75-19.96,0-6.26,2.44-10.89,7.31-13.89,4.88-3,10.97-4.5,18.29-4.5,3.41,0,6.74.6,9.97,1.81,3.24,1.21,6.14,2.56,8.7,4.06,2.04,1.17,3.67,1.76,4.86,1.76,1.45,0,2.3-.78,2.56-2.35l.51-3.52h3.08l1.28,25.44h-3.08c-2.05-7.04-5.8-12.82-11.26-17.32-5.46-4.5-11.34-6.75-17.65-6.75-4.77,0-8.69,1.19-11.76,3.57-3.07,2.38-4.6,5.69-4.6,9.93,0,2.93.94,5.22,2.82,6.85,1.88,1.63,4.66,3.03,8.34,4.21l24.78,7.48c6.02,1.77,10.53,4.29,13.54,7.56,3.01,3.27,4.51,6.7,4.51,10.3,0,5.41-2.39,10.13-7.17,14.14-4.78,4.01-11.82,6.02-21.12,6.02-3.15,0-6.46-.55-9.91-1.66-3.45-1.11-5.65-1.92-6.58-2.45-.94-.52-2.47-1.35-4.61-2.5-2.13-1.14-3.41-1.81-3.85-2.01s-.83-.29-1.18-.29c-.77,0-1.52.34-2.24,1.03-.72.68-1.18,1.75-1.37,3.18l-.58,3.91h-2.95l-.9-30.91Z"/>
    <path class="cls-2" d="M239.06,304.85v-3.13h4.75c4.96,0,8.55-2.38,10.77-7.14l27.83-59.39h3.21l27.83,62.22c1.54,2.87,4.1,4.3,7.7,4.3h7.18v3.13h-39.78v-3.13h8.46c1.28,0,2.35-.24,3.21-.73.85-.49,1.28-1.06,1.28-1.71,0-.85-.17-1.56-.51-2.15l-5.64-12.82h-28.76l-3.07,6.59c-1.32,2.55-1.99,4.47-1.99,5.74,0,1.34.52,2.52,1.57,3.54,1.05,1.02,2.77,1.53,5.16,1.53h6.8v3.13h-36ZM268.29,280.78h25.34l-12.89-28.62-12.45,28.62Z"/>
  </g>
</svg>