<?xml version="1.0" encoding="UTF-8"?>
<svg id="Ebene_1" data-name="Ebene 1" xmlns="http://www.w3.org/2000/svg" viewBox="0 0 1569.26 838.33">
  <defs>
    <style>
      .cls-1 {
        stroke-width: 0px;
      }
    </style>
  </defs>
  <g>
    <path class="cls-1" d="M0,182.12h13.51c3.8,32.36,19.42,61.36,46.83,86.98,27.41,25.63,57.3,38.44,89.67,38.44,30.7,0,53.06-5.72,67.1-17.18,14.04-11.45,21.06-25.2,21.06-41.24,0-14.03-5.5-25.05-16.48-33.07-10.99-8.01-27.08-15.17-48.27-21.48l-85.59-26.2C30.03,150.91,1.13,121.7,1.13,80.75c0-27.49,10.7-47.82,32.11-60.99C54.64,6.59,81.41,0,113.52,0c14.98,0,29.57,2.65,43.79,7.95,14.22,5.3,26.95,11.24,38.18,17.82,8.98,5.15,16.09,7.73,21.34,7.73,6.35,0,10.1-3.44,11.23-10.31l2.24-15.47h13.51l5.63,111.68h-13.51c-8.99-30.93-25.46-56.27-49.42-76.03-23.96-19.76-49.79-29.64-77.48-29.64-20.96,0-38.17,5.23-51.65,15.68-13.48,10.46-20.21,24.99-20.21,43.6,0,12.88,4.13,22.91,12.38,30.07,8.25,7.16,20.45,13.31,36.6,18.47l108.79,32.84c26.43,7.76,46.24,18.82,59.46,33.17,13.21,14.36,19.82,29.43,19.82,45.22,0,23.77-10.5,44.46-31.48,62.07-20.99,17.61-51.9,26.41-92.72,26.41-13.85,0-28.36-2.43-43.51-7.3-15.16-4.87-24.79-8.44-28.91-10.74-4.12-2.29-10.86-5.94-20.22-10.96-9.36-5-14.99-7.95-16.91-8.8-1.92-.86-3.63-1.29-5.16-1.29-3.39,0-6.67,1.5-9.84,4.51-3.18,3.01-5.18,7.66-6.03,13.96l-2.55,17.18H3.94L0,182.12Z"/>
    <path class="cls-1" d="M334.46,313.56v-13.75h40.54c10.13,0,15.2-3.86,15.2-11.6V33.07c0-7.73-5.07-11.6-15.2-11.6h-40.54V7.73h314.2l2.25,97.07h-14.08l-.56-8.59c-.76-6.02-3.01-13.89-6.76-23.63-3.76-9.73-9.01-18.47-15.77-26.2-14.27-16.61-36.23-24.91-65.88-24.91h-90.66c-10.13,0-15.2,3.86-15.2,11.6v117.26h49.55c10.14,0,18.58-1.79,25.34-5.37,6.76-3.58,11.45-8.66,14.08-15.25,2.62-6.59,4.41-12.74,5.35-18.47.93-5.72,1.41-12.46,1.41-20.19h14.64v134.45h-14.64c0-8.01-.38-14.82-1.13-20.41-.76-5.58-2.54-11.74-5.35-18.47-2.81-6.72-7.6-11.88-14.36-15.46-6.76-3.58-15.2-5.37-25.34-5.37h-49.55v122.41c0,7.73,5.07,11.6,15.2,11.6h90.09c10.14,0,21.12-1.78,32.94-5.37,11.83-3.57,21.48-9.09,29-16.54,7.5-8.01,13.98-18.61,19.43-31.79,5.44-13.17,8.91-24.48,10.42-33.93l2.25-13.74h14.08l-6.76,115.12h-314.2Z"/>
    <path class="cls-1" d="M737.62,182.12h13.51c3.8,32.36,19.42,61.36,46.83,86.98,27.41,25.63,57.3,38.44,89.67,38.44,30.7,0,53.06-5.72,67.1-17.18,14.04-11.45,21.06-25.2,21.06-41.24,0-14.03-5.5-25.05-16.48-33.07-10.99-8.01-27.08-15.17-48.27-21.48l-85.59-26.2c-57.81-17.46-86.72-46.67-86.72-87.62,0-27.49,10.7-47.82,32.11-60.99,21.41-13.17,48.17-19.75,80.28-19.75,14.98,0,29.57,2.65,43.79,7.95,14.22,5.3,26.95,11.24,38.18,17.82,8.98,5.15,16.09,7.73,21.34,7.73,6.35,0,10.1-3.44,11.23-10.31l2.24-15.47h13.51l5.63,111.68h-13.51c-8.99-30.93-25.46-56.27-49.42-76.03-23.96-19.76-49.79-29.64-77.48-29.64-20.96,0-38.17,5.23-51.65,15.68-13.48,10.46-20.21,24.99-20.21,43.6,0,12.88,4.13,22.91,12.38,30.07,8.25,7.16,20.45,13.31,36.6,18.47l108.79,32.84c26.43,7.76,46.24,18.82,59.46,33.17,13.21,14.36,19.82,29.43,19.82,45.22,0,23.77-10.5,44.46-31.48,62.07-20.99,17.61-51.9,26.41-92.72,26.41-13.85,0-28.36-2.43-43.51-7.3-15.16-4.87-24.79-8.44-28.91-10.74-4.12-2.29-10.86-5.94-20.22-10.96-9.36-5-14.99-7.95-16.91-8.8-1.92-.86-3.63-1.29-5.16-1.29-3.39,0-6.67,1.5-9.84,4.51-3.18,3.01-5.18,7.66-6.03,13.96l-2.55,17.18h-12.95l-3.94-135.73Z"/>
    <path class="cls-1" d="M1045.98,313.56v-13.75h20.83c21.77,0,37.53-10.45,47.3-31.35L1236.29,7.73h14.08l122.2,273.18c6.76,12.6,18.02,18.9,33.79,18.9h31.53v13.75h-174.64v-13.75h37.16c5.63,0,10.32-1.07,14.08-3.21,3.75-2.15,5.63-4.65,5.63-7.51,0-3.72-.76-6.86-2.25-9.44l-24.76-56.29h-126.27l-13.47,28.95c-5.82,11.21-8.72,19.62-8.72,25.22,0,5.89,2.3,11.07,6.89,15.56,4.59,4.48,12.15,6.72,22.66,6.72h29.84v13.75h-158.06ZM1174.29,207.89h111.26l-56.59-125.65-54.67,125.65Z"/>
  </g>
  <text/>
</svg>