<svg width="1660" height="291" viewBox="0 0 1660 291" fill="none" xmlns="http://www.w3.org/2000/svg">
<path d="M0.370117 42.22H3.15012C3.93012 48.88 7.15012 54.85 12.7901 60.13C18.4301 65.41 24.5901 68.05 31.2501 68.05C37.5701 68.05 42.1701 66.87 45.0701 64.51C47.9601 62.15 49.4101 59.32 49.4101 56.02C49.4101 53.13 48.2801 50.86 46.0201 49.21C43.7601 47.56 40.4401 46.09 36.0801 44.79L18.4601 39.39C6.55012 35.8 0.600117 29.78 0.600117 21.35C0.600117 15.69 2.80012 11.5 7.21012 8.79C11.6201 6.08 17.1301 4.72 23.7401 4.72C26.8201 4.72 29.8301 5.27 32.7601 6.36C35.6901 7.45 38.3101 8.67 40.6201 10.03C42.4701 11.09 43.9301 11.62 45.0101 11.62C46.3201 11.62 47.0901 10.91 47.3201 9.5L47.7801 6.32H50.5601L51.7201 29.31H48.9401C47.0901 22.94 43.7001 17.72 38.7601 13.66C33.8301 9.59 28.5101 7.56 22.8101 7.56C18.5001 7.56 14.9501 8.64 12.1801 10.79C9.41012 12.94 8.02012 15.93 8.02012 19.77C8.02012 22.42 8.87012 24.49 10.5701 25.96C12.2701 27.43 14.7801 28.7 18.1101 29.76L40.5101 36.52C45.9501 38.12 50.0301 40.39 52.7501 43.35C55.4701 46.31 56.8301 49.41 56.8301 52.66C56.8301 57.55 54.6701 61.81 50.3501 65.44C46.0301 69.07 39.6601 70.88 31.2601 70.88C28.4101 70.88 25.4201 70.38 22.3001 69.38C19.1801 68.38 17.2001 67.64 16.3501 67.17C15.5001 66.7 14.1101 65.95 12.1901 64.91C10.2601 63.88 9.10012 63.27 8.71012 63.1C8.32012 62.93 7.96012 62.83 7.65012 62.83C6.95012 62.83 6.28012 63.14 5.62012 63.76C4.97012 64.38 4.55012 65.34 4.38012 66.63L3.86012 70.17H1.18012L0.370117 42.22Z" fill="#E54545"/>
<path d="M69.2302 69.28V66.45H77.5802C79.6702 66.45 80.7102 65.65 80.7102 64.06V11.53C80.7102 9.94 79.6702 9.14 77.5802 9.14H69.2302V6.31H133.92L134.38 26.3H131.48L131.36 24.53C131.2 23.29 130.74 21.67 129.97 19.67C129.2 17.67 128.12 15.87 126.72 14.28C123.78 10.86 119.26 9.15 113.16 9.15H94.4902C92.4002 9.15 91.3602 9.95 91.3602 11.54V35.68H101.56C103.65 35.68 105.39 35.31 106.78 34.57C108.17 33.83 109.14 32.79 109.68 31.43C110.22 30.07 110.59 28.81 110.78 27.63C110.97 26.45 111.07 25.07 111.07 23.47H114.08V51.15H111.07C111.07 49.5 110.99 48.1 110.84 46.95C110.68 45.8 110.32 44.53 109.74 43.15C109.16 41.77 108.17 40.7 106.78 39.97C105.39 39.23 103.65 38.86 101.56 38.86H91.3602V64.06C91.3602 65.65 92.4002 66.45 94.4902 66.45H113.04C115.13 66.45 117.39 66.08 119.82 65.34C122.25 64.6 124.24 63.47 125.79 61.94C127.34 60.29 128.67 58.11 129.79 55.4C130.91 52.69 131.62 50.36 131.93 48.41L132.39 45.58H135.29L133.9 69.28H69.2102H69.2302Z" fill="black"/>
<path d="M152.24 42.22H155.02C155.8 48.88 159.02 54.85 164.66 60.13C170.3 65.41 176.46 68.05 183.12 68.05C189.44 68.05 194.04 66.87 196.94 64.51C199.83 62.15 201.28 59.32 201.28 56.02C201.28 53.13 200.15 50.86 197.89 49.21C195.63 47.56 192.31 46.09 187.95 44.79L170.33 39.39C158.43 35.8 152.48 29.78 152.48 21.35C152.48 15.69 154.68 11.5 159.09 8.79C163.5 6.08 169.01 4.72 175.62 4.72C178.7 4.72 181.71 5.27 184.64 6.36C187.57 7.45 190.19 8.67 192.5 10.03C194.35 11.09 195.81 11.62 196.89 11.62C198.2 11.62 198.97 10.91 199.2 9.5L199.66 6.32H202.44L203.6 29.31H200.82C198.97 22.94 195.58 17.72 190.64 13.66C185.71 9.59 180.39 7.56 174.69 7.56C170.38 7.56 166.83 8.64 164.06 10.79C161.28 12.94 159.9 15.93 159.9 19.77C159.9 22.42 160.75 24.49 162.45 25.96C164.15 27.43 166.66 28.7 169.99 29.76L192.39 36.52C197.83 38.12 201.91 40.39 204.63 43.35C207.35 46.31 208.71 49.41 208.71 52.66C208.71 57.55 206.55 61.81 202.23 65.44C197.91 69.07 191.54 70.88 183.14 70.88C180.29 70.88 177.3 70.38 174.18 69.38C171.06 68.38 169.08 67.64 168.23 67.17C167.38 66.7 165.99 65.95 164.07 64.91C162.14 63.88 160.98 63.27 160.59 63.1C160.2 62.93 159.84 62.83 159.53 62.83C158.83 62.83 158.16 63.14 157.5 63.76C156.85 64.38 156.43 65.34 156.26 66.63L155.74 70.17H153.07L152.26 42.22H152.24Z" fill="black"/>
<path d="M215.73 69.28V66.45H220.02C224.5 66.45 227.75 64.3 229.76 60L254.92 6.32001H257.82L282.98 62.57C284.37 65.16 286.69 66.46 289.94 66.46H296.43V69.29H260.47V66.46H268.12C269.28 66.46 270.25 66.24 271.02 65.8C271.79 65.36 272.18 64.84 272.18 64.25C272.18 63.48 272.02 62.84 271.72 62.31L266.62 50.72H240.62L237.85 56.68C236.65 58.99 236.05 60.72 236.05 61.87C236.05 63.08 236.52 64.15 237.47 65.07C238.42 65.99 239.97 66.45 242.14 66.45H248.28V69.28H215.74H215.73ZM242.15 47.53H265.06L253.41 21.66L242.15 47.53Z" fill="black"/>
<path d="M0 112.77H2.78C3.56 119.43 6.78 125.4 12.42 130.68C18.06 135.96 24.22 138.6 30.88 138.6C37.2 138.6 41.8 137.42 44.7 135.06C47.59 132.7 49.04 129.87 49.04 126.57C49.04 123.68 47.91 121.41 45.65 119.76C43.39 118.11 40.07 116.64 35.71 115.34L18.09 109.94C6.18 106.34 0.23 100.33 0.23 91.9C0.23 86.24 2.43 82.05 6.84 79.34C11.25 76.63 16.76 75.27 23.37 75.27C26.45 75.27 29.46 75.82 32.39 76.91C35.32 78 37.94 79.22 40.25 80.58C42.1 81.64 43.56 82.17 44.64 82.17C45.95 82.17 46.72 81.46 46.95 80.05L47.41 76.87H50.19L51.35 99.86H48.57C46.72 93.49 43.33 88.27 38.39 84.21C33.46 80.14 28.14 78.11 22.44 78.11C18.13 78.11 14.58 79.19 11.81 81.34C9.03 83.49 7.65 86.48 7.65 90.32C7.65 92.97 8.5 95.04 10.2 96.51C11.9 97.98 14.41 99.25 17.74 100.31L40.14 107.07C45.58 108.67 49.66 110.94 52.38 113.9C55.1 116.86 56.46 119.96 56.46 123.21C56.46 128.1 54.3 132.36 49.98 135.99C45.66 139.62 39.29 141.43 30.89 141.43C28.04 141.43 25.05 140.93 21.93 139.93C18.81 138.93 16.83 138.19 15.98 137.72C15.13 137.25 13.74 136.5 11.82 135.46C9.89 134.43 8.73 133.82 8.34 133.65C7.95 133.48 7.59 133.38 7.28 133.38C6.58 133.38 5.91 133.69 5.25 134.31C4.6 134.93 4.18 135.89 4.01 137.18L3.49 140.72H0.81L0 112.77Z" fill="black"/>
<path d="M68.8601 139.83V137H77.2101C79.3001 137 80.3401 136.2 80.3401 134.61V82.08C80.3401 80.49 79.3001 79.69 77.2101 79.69H68.8601V76.86H133.55L134.01 96.85H131.11L130.99 95.08C130.83 93.84 130.37 92.22 129.6 90.22C128.83 88.22 127.75 86.42 126.35 84.83C123.41 81.41 118.89 79.7 112.79 79.7H94.1201C92.0301 79.7 90.9901 80.5 90.9901 82.09V106.23H101.19C103.28 106.23 105.02 105.86 106.41 105.12C107.8 104.38 108.77 103.34 109.31 101.98C109.85 100.62 110.22 99.36 110.41 98.18C110.6 97 110.7 95.62 110.7 94.02H113.71V121.7H110.7C110.7 120.05 110.62 118.65 110.47 117.5C110.31 116.35 109.95 115.08 109.37 113.7C108.79 112.32 107.8 111.25 106.41 110.52C105.02 109.78 103.28 109.41 101.19 109.41H90.9901V134.61C90.9901 136.2 92.0301 137 94.1201 137H112.67C114.76 137 117.02 136.63 119.45 135.89C121.88 135.15 123.87 134.02 125.42 132.49C126.97 130.84 128.3 128.66 129.42 125.95C130.54 123.24 131.25 120.91 131.56 118.96L132.02 116.13H134.92L133.53 139.83H68.8401H68.8601Z" fill="#E54545"/>
<path d="M151.87 112.77H154.65C155.43 119.43 158.65 125.4 164.29 130.68C169.93 135.96 176.09 138.6 182.75 138.6C189.07 138.6 193.67 137.42 196.57 135.06C199.46 132.7 200.91 129.87 200.91 126.57C200.91 123.68 199.78 121.41 197.52 119.76C195.26 118.11 191.94 116.64 187.58 115.34L169.96 109.94C158.06 106.35 152.11 100.33 152.11 91.9C152.11 86.24 154.31 82.05 158.72 79.34C163.13 76.63 168.64 75.27 175.25 75.27C178.33 75.27 181.34 75.82 184.27 76.91C187.2 78 189.82 79.22 192.13 80.58C193.98 81.64 195.44 82.17 196.52 82.17C197.83 82.17 198.6 81.46 198.83 80.05L199.29 76.87H202.07L203.23 99.86H200.45C198.6 93.49 195.21 88.27 190.27 84.21C185.34 80.14 180.02 78.11 174.32 78.11C170.01 78.11 166.46 79.19 163.69 81.34C160.91 83.49 159.53 86.48 159.53 90.32C159.53 92.97 160.38 95.04 162.08 96.51C163.78 97.98 166.29 99.25 169.62 100.31L192.02 107.07C197.46 108.67 201.54 110.94 204.26 113.9C206.98 116.86 208.34 119.96 208.34 123.21C208.34 128.1 206.18 132.36 201.86 135.99C197.54 139.62 191.17 141.43 182.77 141.43C179.92 141.43 176.93 140.93 173.81 139.93C170.69 138.93 168.71 138.19 167.86 137.72C167.01 137.25 165.62 136.5 163.7 135.46C161.77 134.43 160.61 133.82 160.22 133.65C159.83 133.48 159.47 133.38 159.16 133.38C158.46 133.38 157.79 133.69 157.13 134.31C156.48 134.93 156.06 135.89 155.89 137.18L155.37 140.72H152.7L151.89 112.77H151.87Z" fill="black"/>
<path d="M216.1 139.83V137H220.39C224.87 137 228.12 134.85 230.13 130.55L255.29 76.87H258.19L283.35 133.12C284.74 135.71 287.06 137.01 290.31 137.01H296.8V139.84H260.84V137.01H268.49C269.65 137.01 270.62 136.79 271.39 136.35C272.16 135.91 272.55 135.39 272.55 134.8C272.55 134.03 272.39 133.39 272.09 132.86L266.99 121.27H240.99L238.22 127.23C237.02 129.54 236.42 131.27 236.42 132.42C236.42 133.63 236.89 134.7 237.84 135.62C238.79 136.54 240.34 137 242.51 137H248.65V139.83H216.11H216.1ZM242.52 118.07H265.43L253.78 92.2L242.52 118.07Z" fill="black"/>
<path d="M0 182.71H2.78C3.56 189.37 6.78 195.34 12.42 200.62C18.06 205.9 24.22 208.54 30.88 208.54C37.2 208.54 41.8 207.36 44.7 205C47.6 202.64 49.04 199.81 49.04 196.51C49.04 193.62 47.91 191.35 45.65 189.7C43.39 188.05 40.07 186.58 35.71 185.28L18.09 179.88C6.18 176.28 0.23 170.27 0.23 161.84C0.23 156.18 2.43 151.99 6.84 149.28C11.25 146.57 16.76 145.21 23.37 145.21C26.45 145.21 29.46 145.76 32.39 146.85C35.32 147.94 37.94 149.16 40.25 150.52C42.1 151.58 43.56 152.11 44.64 152.11C45.95 152.11 46.72 151.4 46.95 149.99L47.41 146.81H50.19L51.35 169.8H48.57C46.72 163.43 43.33 158.21 38.39 154.15C33.46 150.08 28.14 148.05 22.44 148.05C18.13 148.05 14.58 149.13 11.81 151.28C9.03 153.43 7.65 156.42 7.65 160.26C7.65 162.91 8.5 164.98 10.2 166.45C11.9 167.92 14.41 169.19 17.74 170.25L40.14 177.01C45.58 178.61 49.66 180.88 52.38 183.84C55.1 186.8 56.46 189.9 56.46 193.15C56.46 198.04 54.3 202.3 49.98 205.93C45.66 209.56 39.29 211.37 30.89 211.37C28.04 211.37 25.05 210.87 21.93 209.87C18.81 208.87 16.83 208.13 15.98 207.66C15.13 207.19 13.74 206.44 11.82 205.4C9.89 204.37 8.73 203.76 8.34 203.59C7.95 203.42 7.59 203.32 7.28 203.32C6.58 203.32 5.91 203.63 5.25 204.25C4.6 204.87 4.18 205.83 4.01 207.12L3.49 210.66H0.81L0 182.71Z" fill="black"/>
<path d="M68.8601 209.77V206.94H77.2101C79.3001 206.94 80.3401 206.14 80.3401 204.55V152.02C80.3401 150.43 79.3001 149.63 77.2101 149.63H68.8601V146.8H133.55L134.01 166.79H131.11L130.99 165.02C130.83 163.78 130.37 162.16 129.6 160.16C128.83 158.16 127.75 156.36 126.35 154.77C123.41 151.35 118.89 149.64 112.79 149.64H94.1201C92.0301 149.64 90.9901 150.44 90.9901 152.03V176.17H101.19C103.28 176.17 105.02 175.8 106.41 175.06C107.8 174.32 108.77 173.28 109.31 171.92C109.85 170.56 110.22 169.3 110.41 168.12C110.6 166.94 110.7 165.56 110.7 163.96H113.71V191.64H110.7C110.7 189.99 110.62 188.59 110.47 187.44C110.31 186.29 109.95 185.02 109.37 183.64C108.79 182.26 107.8 181.19 106.41 180.46C105.02 179.72 103.28 179.35 101.19 179.35H90.9901V204.55C90.9901 206.14 92.0301 206.94 94.1201 206.94H112.67C114.76 206.94 117.02 206.57 119.45 205.83C121.88 205.09 123.87 203.96 125.42 202.43C126.97 200.78 128.3 198.6 129.42 195.89C130.54 193.18 131.25 190.85 131.56 188.9L132.02 186.07H134.92L133.53 209.77H68.8401H68.8601Z" fill="black"/>
<path d="M151.87 182.71H154.65C155.43 189.37 158.65 195.34 164.29 200.62C169.93 205.9 176.09 208.54 182.75 208.54C189.07 208.54 193.67 207.36 196.57 205C199.46 202.64 200.91 199.81 200.91 196.51C200.91 193.62 199.78 191.35 197.52 189.7C195.26 188.05 191.94 186.58 187.58 185.28L169.96 179.88C158.06 176.29 152.11 170.27 152.11 161.84C152.11 156.18 154.31 151.99 158.72 149.28C163.13 146.57 168.64 145.21 175.25 145.21C178.33 145.21 181.34 145.76 184.27 146.85C187.2 147.94 189.82 149.16 192.13 150.52C193.98 151.58 195.44 152.11 196.52 152.11C197.83 152.11 198.6 151.4 198.83 149.99L199.29 146.81H202.07L203.23 169.8H200.45C198.6 163.43 195.21 158.21 190.27 154.15C185.34 150.08 180.02 148.05 174.32 148.05C170.01 148.05 166.46 149.13 163.69 151.28C160.91 153.43 159.53 156.42 159.53 160.26C159.53 162.91 160.38 164.98 162.08 166.45C163.78 167.92 166.29 169.19 169.62 170.25L192.02 177.01C197.46 178.61 201.54 180.88 204.26 183.84C206.98 186.8 208.34 189.9 208.34 193.15C208.34 198.04 206.18 202.3 201.86 205.93C197.54 209.56 191.17 211.37 182.77 211.37C179.92 211.37 176.93 210.87 173.81 209.87C170.69 208.87 168.71 208.13 167.86 207.66C167.01 207.19 165.62 206.44 163.7 205.4C161.77 204.37 160.61 203.76 160.22 203.59C159.83 203.42 159.47 203.32 159.16 203.32C158.46 203.32 157.79 203.63 157.13 204.25C156.48 204.87 156.06 205.83 155.89 207.12L155.37 210.66H152.7L151.89 182.71H151.87Z" fill="#E54545"/>
<path d="M216.1 209.77V206.94H220.39C224.87 206.94 228.12 204.79 230.13 200.49L255.29 146.81H258.19L283.35 203.06C284.74 205.65 287.06 206.95 290.31 206.95H296.8V209.78H260.84V206.95H268.49C269.65 206.95 270.62 206.73 271.39 206.29C272.16 205.85 272.55 205.33 272.55 204.74C272.55 203.97 272.39 203.33 272.09 202.8L266.99 191.21H240.99L238.22 197.17C237.02 199.48 236.42 201.21 236.42 202.36C236.42 203.57 236.89 204.64 237.84 205.56C238.79 206.48 240.34 206.94 242.51 206.94H248.65V209.77H216.11H216.1ZM242.52 188.02H265.43L253.78 162.15L242.52 188.02Z" fill="black"/>
<path d="M0 253.23H2.78C3.56 259.89 6.78 265.86 12.42 271.14C18.06 276.42 24.22 279.06 30.88 279.06C37.2 279.06 41.8 277.88 44.7 275.52C47.6 273.16 49.04 270.33 49.04 267.03C49.04 264.14 47.91 261.87 45.65 260.22C43.39 258.57 40.07 257.1 35.71 255.8L18.09 250.4C6.18 246.81 0.23 240.79 0.23 232.36C0.23 226.7 2.43 222.51 6.84 219.8C11.25 217.09 16.76 215.73 23.37 215.73C26.45 215.73 29.46 216.28 32.39 217.37C35.32 218.46 37.94 219.68 40.25 221.04C42.1 222.1 43.56 222.63 44.64 222.63C45.95 222.63 46.72 221.92 46.95 220.51L47.41 217.33H50.19L51.35 240.32H48.57C46.72 233.95 43.33 228.73 38.39 224.67C33.46 220.6 28.14 218.57 22.44 218.57C18.13 218.57 14.58 219.65 11.81 221.8C9.03 223.95 7.65 226.94 7.65 230.78C7.65 233.43 8.5 235.5 10.2 236.97C11.9 238.44 14.41 239.71 17.74 240.77L40.14 247.53C45.58 249.13 49.66 251.4 52.38 254.36C55.1 257.32 56.46 260.42 56.46 263.67C56.46 268.56 54.3 272.82 49.98 276.45C45.66 280.08 39.29 281.89 30.89 281.89C28.04 281.89 25.05 281.39 21.93 280.39C18.81 279.39 16.83 278.65 15.98 278.18C15.13 277.71 13.74 276.96 11.82 275.92C9.89 274.89 8.73 274.28 8.34 274.11C7.95 273.94 7.59 273.84 7.28 273.84C6.58 273.84 5.91 274.15 5.25 274.77C4.6 275.39 4.18 276.35 4.01 277.64L3.49 281.18H0.81L0 253.23Z" fill="black"/>
<path d="M68.8601 280.29V277.46H77.2101C79.3001 277.46 80.3401 276.66 80.3401 275.07V222.54C80.3401 220.95 79.3001 220.15 77.2101 220.15H68.8601V217.32H133.55L134.01 237.31H131.11L130.99 235.54C130.83 234.3 130.37 232.68 129.6 230.68C128.83 228.68 127.75 226.88 126.35 225.29C123.41 221.87 118.89 220.16 112.79 220.16H94.1201C92.0301 220.16 90.9901 220.96 90.9901 222.55V246.69H101.19C103.28 246.69 105.02 246.32 106.41 245.58C107.8 244.84 108.77 243.8 109.31 242.44C109.85 241.08 110.22 239.82 110.41 238.64C110.6 237.46 110.7 236.08 110.7 234.48H113.71V262.16H110.7C110.7 260.51 110.62 259.11 110.47 257.96C110.31 256.81 109.95 255.54 109.37 254.16C108.79 252.78 107.8 251.71 106.41 250.98C105.02 250.24 103.28 249.87 101.19 249.87H90.9901V275.07C90.9901 276.66 92.0301 277.46 94.1201 277.46H112.67C114.76 277.46 117.02 277.09 119.45 276.35C121.88 275.61 123.87 274.48 125.42 272.95C126.97 271.3 128.3 269.12 129.42 266.41C130.54 263.7 131.25 261.37 131.56 259.42L132.02 256.59H134.92L133.53 280.29H68.8401H68.8601Z" fill="black"/>
<path d="M151.87 253.23H154.65C155.43 259.89 158.65 265.86 164.29 271.14C169.93 276.42 176.09 279.06 182.75 279.06C189.07 279.06 193.67 277.88 196.57 275.52C199.47 273.16 200.91 270.33 200.91 267.03C200.91 264.14 199.78 261.87 197.52 260.22C195.26 258.57 191.94 257.1 187.58 255.8L169.96 250.4C158.06 246.81 152.11 240.79 152.11 232.36C152.11 226.7 154.31 222.51 158.72 219.8C163.13 217.09 168.64 215.73 175.25 215.73C178.33 215.73 181.34 216.28 184.27 217.37C187.2 218.46 189.82 219.68 192.13 221.04C193.98 222.1 195.44 222.63 196.52 222.63C197.83 222.63 198.6 221.92 198.83 220.51L199.29 217.33H202.07L203.23 240.32H200.45C198.6 233.95 195.21 228.73 190.27 224.67C185.34 220.6 180.02 218.57 174.32 218.57C170.01 218.57 166.46 219.65 163.69 221.8C160.91 223.95 159.53 226.94 159.53 230.78C159.53 233.43 160.38 235.5 162.08 236.97C163.78 238.44 166.29 239.71 169.62 240.77L192.02 247.53C197.46 249.13 201.54 251.4 204.26 254.36C206.98 257.32 208.34 260.42 208.34 263.67C208.34 268.56 206.18 272.82 201.86 276.45C197.54 280.08 191.17 281.89 182.77 281.89C179.92 281.89 176.93 281.39 173.81 280.39C170.69 279.39 168.71 278.65 167.86 278.18C167.01 277.71 165.62 276.96 163.7 275.92C161.77 274.89 160.61 274.28 160.22 274.11C159.83 273.94 159.47 273.84 159.16 273.84C158.46 273.84 157.79 274.15 157.13 274.77C156.48 275.39 156.06 276.35 155.89 277.64L155.37 281.18H152.7L151.89 253.23H151.87Z" fill="black"/>
<path d="M216.1 280.29V277.46H220.39C224.87 277.46 228.12 275.31 230.13 271.01L255.29 217.33H258.19L283.35 273.58C284.74 276.17 287.06 277.47 290.31 277.47H296.8V280.3H260.84V277.47H268.49C269.65 277.47 270.62 277.25 271.39 276.81C272.16 276.37 272.55 275.85 272.55 275.26C272.55 274.49 272.39 273.85 272.09 273.32L266.99 261.73H240.99L238.22 267.69C237.02 270 236.42 271.73 236.42 272.88C236.42 274.09 236.89 275.16 237.84 276.08C238.79 277 240.34 277.46 242.51 277.46H248.65V280.29H216.11H216.1ZM242.52 258.54H265.43L253.78 232.67L242.52 258.54Z" fill="#E54545"/>
<path d="M359.66 164.63H371.88C375.32 193.88 389.43 220.09 414.21 243.25C438.99 266.42 466.01 278 495.27 278C523.02 278 543.23 272.83 555.93 262.47C568.62 252.12 574.97 239.69 574.97 225.2C574.97 212.52 570 202.55 560.07 195.3C550.14 188.06 535.59 181.58 516.43 175.89L439.06 152.2C386.8 136.42 360.67 110.01 360.67 72.99C360.67 48.14 370.34 29.76 389.7 17.85C409.05 5.96 433.25 0 462.27 0C475.81 0 489 2.4 501.85 7.18C514.7 11.97 526.21 17.34 536.36 23.29C544.47 27.95 550.91 30.28 555.65 30.28C561.39 30.28 564.78 27.17 565.8 20.96L567.83 6.98H580.05L585.14 107.93H572.93C564.8 79.97 549.91 57.06 528.26 39.21C506.61 21.35 483.26 12.42 458.22 12.42C439.28 12.42 423.71 17.14 411.53 26.6C399.35 36.05 393.26 49.19 393.26 66.01C393.26 77.66 396.99 86.72 404.45 93.19C411.91 99.66 422.93 105.23 437.54 109.89L535.88 139.58C559.77 146.6 577.68 156.59 589.63 169.57C601.57 182.55 607.55 196.17 607.55 210.44C607.55 231.93 598.06 250.63 579.09 266.55C560.11 282.47 532.18 290.42 495.27 290.42C482.75 290.42 469.64 288.22 455.93 283.82C442.23 279.42 433.52 276.19 429.8 274.11C426.08 272.04 419.98 268.74 411.52 264.21C403.06 259.69 397.97 257.03 396.23 256.25C394.5 255.47 392.95 255.09 391.56 255.09C388.5 255.09 385.53 256.45 382.67 259.17C379.8 261.89 377.99 266.1 377.22 271.79L374.92 287.32H363.22L359.66 164.63Z" fill="black"/>
<path d="M662 283.44V271.01H698.65C707.81 271.01 712.39 267.52 712.39 260.53V29.9C712.39 22.91 707.81 19.42 698.65 19.42H662V6.98999H946.02L948.06 94.74H935.34L934.83 86.98C934.15 81.54 932.11 74.43 928.72 65.62C925.32 56.82 920.58 48.93 914.47 41.94C901.57 26.93 881.72 19.42 854.92 19.42H772.97C763.81 19.42 759.23 22.91 759.23 29.9V135.9H804.02C813.18 135.9 820.82 134.29 826.93 131.05C833.04 127.82 837.28 123.22 839.65 117.27C842.02 111.31 843.64 105.75 844.49 100.57C845.33 95.4 845.76 89.31 845.76 82.32H858.99V203.85H845.76C845.76 196.61 845.42 190.45 844.74 185.4C844.06 180.35 842.45 174.79 839.9 168.7C837.36 162.62 833.03 157.96 826.92 154.72C820.81 151.49 813.18 149.87 804.01 149.87H759.22V260.53C759.22 267.52 763.8 271.01 772.96 271.01H854.4C863.56 271.01 873.49 269.4 884.18 266.16C894.87 262.93 903.6 257.95 910.39 251.21C917.17 243.97 923.03 234.39 927.95 222.48C932.87 210.58 936.01 200.35 937.36 191.81L939.4 179.39H952.12L946.01 283.45H661.99L662 283.44Z" fill="black"/>
<path d="M1026.43 164.63H1038.65C1042.09 193.88 1056.2 220.09 1080.98 243.25C1105.76 266.42 1132.78 278 1162.04 278C1189.79 278 1210 272.83 1222.7 262.47C1235.39 252.12 1241.74 239.69 1241.74 225.2C1241.74 212.52 1236.77 202.55 1226.84 195.3C1216.91 188.06 1202.36 181.58 1183.2 175.89L1105.83 152.2C1053.57 136.42 1027.44 110.01 1027.44 72.99C1027.44 48.14 1037.11 29.76 1056.47 17.85C1075.82 5.94999 1100.01 -0.0100098 1129.04 -0.0100098C1142.58 -0.0100098 1155.77 2.38999 1168.62 7.16999C1181.47 11.96 1192.98 17.33 1203.13 23.28C1211.24 27.94 1217.68 30.27 1222.42 30.27C1228.16 30.27 1231.55 27.16 1232.57 20.95L1234.6 6.96999H1246.82L1251.91 107.92H1239.7C1231.57 79.96 1216.68 57.05 1195.03 39.2C1173.38 21.34 1150.03 12.41 1124.99 12.41C1106.05 12.41 1090.48 17.13 1078.3 26.59C1066.12 36.04 1060.03 49.18 1060.03 66C1060.03 77.65 1063.76 86.71 1071.22 93.18C1078.68 99.65 1089.7 105.22 1104.31 109.88L1202.65 139.57C1226.54 146.59 1244.45 156.58 1256.4 169.56C1268.34 182.54 1274.32 196.16 1274.32 210.43C1274.32 231.92 1264.83 250.62 1245.86 266.54C1226.88 282.46 1198.95 290.41 1162.04 290.41C1149.52 290.41 1136.41 288.21 1122.7 283.81C1109 279.41 1100.29 276.18 1096.57 274.1C1092.85 272.03 1086.75 268.73 1078.29 264.2C1069.83 259.68 1064.74 257.02 1063 256.24C1061.27 255.46 1059.72 255.08 1058.33 255.08C1055.27 255.08 1052.3 256.44 1049.44 259.16C1046.57 261.88 1044.76 266.09 1043.99 271.78L1041.69 287.31H1029.99L1026.43 164.62V164.63Z" fill="black"/>
<path d="M1305.17 283.44V271.01H1324C1343.68 271.01 1357.93 261.57 1366.76 242.67L1477.2 6.98999H1489.92L1600.38 253.93C1606.49 265.32 1616.67 271.01 1630.92 271.01H1659.42V283.44H1501.55V271.01H1535.14C1540.23 271.01 1544.47 270.05 1547.86 268.11C1551.25 266.17 1552.95 263.91 1552.95 261.32C1552.95 257.96 1552.27 255.11 1550.91 252.79L1528.53 201.9H1414.39L1402.21 228.07C1396.95 238.21 1394.33 245.81 1394.33 250.87C1394.33 256.2 1396.41 260.88 1400.56 264.94C1404.71 268.99 1411.55 271.02 1421.05 271.02H1448.03V283.45H1305.15L1305.17 283.44ZM1421.16 187.92H1521.73L1470.58 74.34L1421.16 187.92Z" fill="black"/>
</svg>
